<?xml version="1.0" encoding="UTF-8" standalone="no"?>
<!-- Created with Inkscape (http://www.inkscape.org/) -->

<svg
   xmlns:dc="http://purl.org/dc/elements/1.1/"
   xmlns:cc="http://creativecommons.org/ns#"
   xmlns:rdf="http://www.w3.org/1999/02/22-rdf-syntax-ns#"
   xmlns:svg="http://www.w3.org/2000/svg"
   xmlns="http://www.w3.org/2000/svg"
   xmlns:sodipodi="http://sodipodi.sourceforge.net/DTD/sodipodi-0.dtd"
   xmlns:inkscape="http://www.inkscape.org/namespaces/inkscape"
   width="76.67791mm"
   height="76.67791mm"
   viewBox="0 0 76.67791 76.67791"
   version="1.1"
   id="svg8"
   inkscape:version="0.92.5 (2060ec1f9f, 2020-04-08)"
   sodipodi:docname="bgu.svg">
  <defs
     id="defs2">
    <clipPath
       id="clipPath831"
       clipPathUnits="userSpaceOnUse">
      <path
         inkscape:connector-curvature="0"
         id="path829"
         d="M 0,0 H 595.276 V 841.89 H 0 Z" />
    </clipPath>
  </defs>
  <sodipodi:namedview
     id="base"
     pagecolor="#ffffff"
     bordercolor="#666666"
     borderopacity="1.0"
     inkscape:pageopacity="0.0"
     inkscape:pageshadow="2"
     inkscape:zoom="0.7"
     inkscape:cx="-485.06419"
     inkscape:cy="103.10637"
     inkscape:document-units="mm"
     inkscape:current-layer="g827"
     showgrid="false"
     fit-margin-top="0"
     fit-margin-left="0"
     fit-margin-right="0"
     fit-margin-bottom="0"
     inkscape:window-width="1920"
     inkscape:window-height="1025"
     inkscape:window-x="0"
     inkscape:window-y="31"
     inkscape:window-maximized="1" />
  <metadata
     id="metadata5">
    <rdf:RDF>
      <cc:Work
         rdf:about="">
        <dc:format>image/svg+xml</dc:format>
        <dc:type
           rdf:resource="http://purl.org/dc/dcmitype/StillImage" />
        <dc:title></dc:title>
      </cc:Work>
    </rdf:RDF>
  </metadata>
  <g
     inkscape:label="Layer 1"
     inkscape:groupmode="layer"
     id="layer1"
     transform="translate(-72.634962,-110.84469)">
    <g
       transform="matrix(0.35277777,0,0,-0.35277777,3.8571611,310.14001)"
       inkscape:label="bgu-sig-he"
       id="g823">
      <g
         id="g825">
        <g
           clip-path="url(#clipPath831)"
           id="g827">
          <g
             transform="translate(227.8135,404.1162)"
             id="g925">
            <path
               inkscape:connector-curvature="0"
               id="path927"
               style="fill:#231f20;fill-opacity:1;fill-rule:evenodd;stroke:none"
               d="m 0,0 v 12.509 2.261 c 0,5.673 -2.331,8.097 -6.745,8.097 h -2.231 -8.481 c -1.834,0 -2.776,0.166 -3.62,1.654 h -0.347 l -1.834,-2.645 c -0.199,-0.275 -0.299,-0.606 -0.299,-0.992 0,-0.386 0.249,-0.771 0.398,-0.937 1.14,-1.432 2.727,-1.708 3.868,-1.708 h 0.496 c 0.297,0 0.397,0 0.149,-0.385 -1.042,-1.653 -1.438,-3.528 -1.438,-5.401 V 2.37 c 0,-2.039 -1.042,-2.535 -2.034,-2.535 -0.744,0 -1.686,0.165 -2.43,0.716 L -25.44,-2.92 c -0.15,-0.496 -0.05,-0.882 0.396,-1.157 0.645,-0.441 1.984,-0.607 2.529,-0.607 h 0.199 c 1.487,0 3.372,0.663 4.463,2.039 1.14,1.489 1.686,3.306 1.686,6.337 v 12.177 c 0,1.875 0.397,2.481 1.438,2.481 h 6.398 0.793 c 2.976,0 3.67,-1.654 3.67,-4.629 V 13.17 -4.794 h 0.347 C -1.389,-3.802 0,-2.259 0,0" />
          </g>
          <g
             transform="translate(256.3389,415.3574)"
             id="g929">
            <path
               inkscape:connector-curvature="0"
               id="path931"
               style="fill:#231f20;fill-opacity:1;fill-rule:evenodd;stroke:none"
               d="m 0,0 c 0,6.943 -3.769,11.848 -8.828,11.848 -2.28,0 -3.569,-0.827 -4.214,-1.489 -0.298,-0.331 -0.645,-0.992 -0.844,-1.653 l -1.14,-3.746 0.545,-0.222 c 0.843,1.158 2.629,2.535 4.066,2.535 3.968,0 6.299,-3.526 6.299,-9.255 0,-2.977 -0.496,-5.071 -1.537,-6.779 -1.191,-1.874 -3.67,-2.921 -6.199,-2.921 h -0.05 c -3.869,0 -6.695,2.645 -6.695,7.77 V 6.503 c 0,1.101 -0.049,1.873 -0.595,2.975 -0.446,0.881 -1.24,1.874 -2.083,2.48 -0.545,0.44 -0.942,0.495 -1.24,0.495 -0.446,0 -0.793,-0.221 -1.289,-0.936 l -1.636,-2.37 c 0.693,-0.441 1.239,-0.881 1.735,-1.433 0.744,-0.826 1.19,-1.598 1.19,-3.36 v -8.156 c 0,-8.099 4.414,-12.344 9.77,-12.344 h 0.495 c 2.58,0 6.051,0.938 8.382,3.969 C -0.893,-8.32 0,-4.463 0,0" />
          </g>
          <g
             transform="translate(268.4917,420.8682)"
             id="g933">
            <path
               inkscape:connector-curvature="0"
               id="path935"
               style="fill:#231f20;fill-opacity:1;fill-rule:evenodd;stroke:none"
               d="m 0,0 c 0,0.992 -0.595,2.259 -1.736,3.582 -1.289,1.486 -4.117,3.471 -5.406,3.471 -0.645,0 -1.19,-0.772 -1.636,-1.598 l -1.289,-2.26 V 2.92 c 0.892,-0.385 2.925,-1.322 3.768,-1.873 1.439,-0.938 2.133,-2.26 2.133,-3.473 0,-1.046 -0.397,-2.424 -0.843,-4.076 -0.298,-1.048 -1.686,-4.464 -2.133,-5.346 l 0.05,-0.383 c 0.893,-0.058 2.281,1.044 2.48,1.377 0.942,1.21 2.28,3.526 3.223,5.674 C -0.794,-3.803 0,-1.818 0,0" />
          </g>
          <g
             transform="translate(296.1138,415.0264)"
             id="g937">
            <path
               inkscape:connector-curvature="0"
               id="path939"
               style="fill:#231f20;fill-opacity:1;fill-rule:evenodd;stroke:none"
               d="m 0,0 c 0,9.093 -4.662,12.013 -9.572,12.013 h -9.521 c -1.191,0 -2.083,0.22 -2.877,1.709 h -0.347 l -1.834,-2.646 c -0.199,-0.275 -0.348,-0.605 -0.348,-0.992 0,-0.386 0.199,-0.826 0.348,-0.991 1.14,-1.433 2.479,-1.819 3.917,-1.819 0.348,0 0.348,-0.276 0.15,-0.496 -1.34,-1.487 -2.828,-3.966 -2.828,-9.643 0,-8.045 4.166,-12.948 10.96,-12.948 4.215,0 6.596,1.709 8.232,3.691 C -1.042,-8.871 0,-5.124 0,0 m -4.018,-1.432 c 0,-3.913 -0.594,-6.392 -2.033,-8.045 -1.09,-1.211 -3.223,-1.874 -5.603,-1.874 -4.909,0 -7.34,3.197 -7.34,9.478 0,3.196 0.496,7.604 1.19,8.541 0.447,0.551 0.645,0.661 1.388,0.661 h 6.398 c 3.967,0 6,-2.149 6,-8.761" />
          </g>
          <g
             transform="translate(315.916,404.5576)"
             id="g941">
            <path
               inkscape:connector-curvature="0"
               id="path943"
               style="fill:#231f20;fill-opacity:1;fill-rule:evenodd;stroke:none"
               d="m 0,0 v 13.721 c 0,6.721 -2.628,8.76 -7.24,8.76 h -5.504 -1.141 c -0.992,0 -1.388,0.386 -1.886,1.488 h -0.346 l -1.636,-2.424 c -0.199,-0.275 -0.496,-0.937 -0.496,-1.322 0,-0.387 0,-0.772 0.297,-1.213 0.794,-1.047 1.587,-1.267 2.282,-1.267 h 2.975 4.315 c 3.273,0 4.562,-1.102 4.562,-5.4 V -5.235 L -3.371,-5.29 C -1.289,-4.021 0,-2.645 0,0" />
          </g>
          <g
             transform="translate(340.7656,403.6201)"
             id="g945">
            <path
               inkscape:connector-curvature="0"
               id="path947"
               style="fill:#231f20;fill-opacity:1;fill-rule:evenodd;stroke:none"
               d="m 0,0 v 0.441 h -5.059 c -0.396,0 -0.347,0.331 -0.199,0.442 0.894,0.77 1.29,1.597 1.885,2.92 0.694,1.597 0.794,4.464 0.794,8.486 0,5.234 -0.496,7.879 -1.736,9.257 -1.389,1.543 -3.173,1.873 -5.456,1.873 h -6.645 c -0.991,0 -1.686,0.386 -2.182,1.487 h -0.396 l -1.588,-2.424 c -0.197,-0.275 -0.495,-0.881 -0.495,-1.267 0,-0.385 0,-0.772 0.298,-1.212 0.644,-0.992 1.835,-1.322 2.727,-1.322 h 6.844 c 1.636,0 2.628,-0.056 3.372,-0.662 1.239,-0.992 1.389,-3.415 1.389,-7.99 0,-4.683 -0.1,-7.051 -0.943,-8.155 -0.794,-1.102 -1.934,-1.433 -3.273,-1.433 h -9.175 c -0.744,0 -0.991,-0.22 -1.19,-0.879 l -0.942,-3.033 v -0.55 h 19.688 c 0.744,0 0.992,0.219 1.34,1.211 z" />
          </g>
          <g
             transform="translate(352.4687,420.8682)"
             id="g949">
            <path
               inkscape:connector-curvature="0"
               id="path951"
               style="fill:#231f20;fill-opacity:1;fill-rule:evenodd;stroke:none"
               d="m 0,0 c 0,0.992 -0.596,2.259 -1.735,3.582 -1.29,1.486 -4.119,3.471 -5.408,3.471 -0.643,0 -1.189,-0.772 -1.634,-1.598 l -1.289,-2.26 V 2.92 c 0.891,-0.385 2.923,-1.322 3.767,-1.873 1.439,-0.938 2.134,-2.26 2.134,-3.473 0,-1.046 -0.397,-2.424 -0.844,-4.076 -0.298,-1.048 -1.686,-4.464 -2.134,-5.346 l 0.051,-0.383 c 0.894,-0.058 2.28,1.044 2.481,1.377 0.941,1.21 2.28,3.526 3.222,5.674 C -0.794,-3.803 0,-1.818 0,0" />
          </g>
          <g
             transform="translate(365.1758,401.0312)"
             id="g953">
            <path
               inkscape:connector-curvature="0"
               id="path955"
               style="fill:#231f20;fill-opacity:1;fill-rule:evenodd;stroke:none"
               d="m 0,0 v 19.286 c 0,2.92 -1.389,4.903 -3.719,6.171 -1.289,0.717 -3.223,1.268 -4.216,1.268 -0.594,0 -0.942,-0.441 -1.338,-1.268 l -1.538,-3.196 c 1.835,0.055 3.918,-0.441 5.159,-1.432 1.041,-0.827 1.933,-1.765 1.933,-3.803 V 3.141 h -1.14 -3.124 C -8.826,3.141 -9.224,3.195 -9.521,3.03 -9.72,2.92 -9.868,2.92 -10.017,2.534 l -1.686,-4.187 0.198,-0.165 c 0.645,0.44 1.537,0.385 2.628,0.385 H -1.14 C -0.347,-1.433 0,-0.882 0,0" />
          </g>
          <g
             transform="translate(378.1328,404.0068)"
             id="g957">
            <path
               inkscape:connector-curvature="0"
               id="path959"
               style="fill:#231f20;fill-opacity:1;fill-rule:evenodd;stroke:none"
               d="m 0,0 v 9.533 5.949 c 0,2.481 -0.447,4.079 -2.281,5.842 -0.992,0.937 -3.869,2.535 -4.712,2.645 -0.645,0.11 -1.14,-0.11 -1.487,-0.882 l -1.439,-3.085 c 0.645,-0.221 2.776,-1.157 3.819,-1.818 1.14,-0.717 2.231,-2.205 2.231,-3.968 V -0.496 -4.85 h 0.596 C -1.19,-3.361 0,-2.535 0,0" />
          </g>
          <g
             transform="translate(404.9687,402.4082)"
             id="g961">
            <path
               inkscape:connector-curvature="0"
               id="path963"
               style="fill:#231f20;fill-opacity:1;fill-rule:evenodd;stroke:none"
               d="m 0,0 c 0,0.606 -0.298,1.268 -0.744,1.984 -1.141,1.873 -3.918,5.566 -5.158,6.998 -0.248,0.275 -0.049,0.385 0.049,0.551 0.298,0.441 0.844,1.322 1.141,1.763 1.935,3.031 3.72,6.558 3.72,8.486 0,1.707 -1.289,3.857 -3.074,5.07 -0.348,0.219 -0.993,0.496 -1.389,0.496 -0.398,0 -0.942,-0.331 -1.441,-1.103 l -1.436,-2.148 c 1.436,-0.551 3.025,-2.535 3.025,-3.858 0,-1.213 -1.24,-4.408 -2.232,-6.391 -0.297,-0.552 -0.346,-0.442 -0.645,-0.111 -2.925,3.307 -7.043,7.825 -9.868,10.801 -0.992,1.046 -1.735,2.314 -2.083,2.975 h -0.396 l -1.637,-2.645 c -0.148,-0.221 -0.348,-0.826 -0.348,-1.157 0,-0.496 0.348,-1.157 0.745,-1.599 0.744,-0.826 1.984,-2.039 2.827,-2.974 0.743,-0.826 0.841,-1.378 0.297,-2.756 -0.546,-1.321 -1.29,-3.086 -1.636,-3.857 -1.835,-4.296 -2.827,-7.108 -2.827,-8.651 0,-0.606 0.048,-2.039 0.794,-3.086 0.991,-1.322 1.883,-1.764 3.123,-1.764 0.893,0 1.339,0.663 1.736,1.378 l 1.141,2.094 h -0.049 c -2.133,0.496 -2.629,1.653 -2.629,3.142 0,1.377 1.735,6.832 2.726,9.367 0.151,0.386 0.299,0.605 0.448,0.605 0.198,0 0.347,0.055 0.644,-0.33 1.041,-1.158 2.629,-3.031 4.215,-4.904 2.977,-3.526 6.249,-7.824 8.481,-11.572 h 0.297 c 0.546,0.386 1.488,1.433 1.935,2.259 C -0.1,-0.605 0,-0.33 0,0" />
          </g>
          <g
             transform="translate(216.9307,362.8955)"
             id="g965">
            <path
               inkscape:connector-curvature="0"
               id="path967"
               style="fill:#231f20;fill-opacity:1;fill-rule:evenodd;stroke:none"
               d="m 0,0 v 0.44 h -5.059 c -0.396,0 -0.347,0.331 -0.198,0.442 0.893,0.77 1.289,1.597 1.884,2.92 0.695,1.598 0.794,4.464 0.794,8.486 0,5.235 -0.497,7.879 -1.736,9.257 -1.389,1.543 -3.173,1.873 -5.455,1.873 h -6.646 c -0.991,0 -1.686,0.387 -2.181,1.488 h -0.397 l -1.587,-2.424 c -0.198,-0.276 -0.496,-0.882 -0.496,-1.268 0,-0.385 0,-0.771 0.298,-1.212 0.644,-0.992 1.835,-1.322 2.727,-1.322 h 6.844 c 1.636,0 2.628,-0.056 3.372,-0.661 1.24,-0.992 1.389,-3.416 1.389,-7.99 0,-4.684 -0.099,-7.053 -0.943,-8.156 C -8.183,0.771 -9.323,0.44 -10.663,0.44 h -9.174 c -0.744,0 -0.992,-0.219 -1.19,-0.879 l -0.943,-3.033 v -0.549 h 19.688 c 0.744,0 0.992,0.218 1.34,1.21 z" />
          </g>
          <g
             transform="translate(232.8496,363.1162)"
             id="g969">
            <path
               inkscape:connector-curvature="0"
               id="path971"
               style="fill:#231f20;fill-opacity:1;fill-rule:evenodd;stroke:none"
               d="m 0,0 -1.885,16.586 c -0.248,2.148 -0.743,3.526 -1.735,4.685 -1.389,1.651 -4.91,2.918 -6.298,2.918 -0.645,0 -0.844,-0.384 -1.191,-1.101 l -1.488,-3.252 c 1.191,0 4.216,-0.551 5.455,-1.651 0.993,-0.882 1.339,-1.93 1.538,-3.416 L -4.96,10.083 C -4.463,6.447 -5.406,5.345 -6.497,4.243 -8.083,2.7 -10.613,1.322 -12.944,0.441 l -0.099,-0.166 -1.041,-3.692 c -0.05,-0.22 -0.149,-0.496 -0.149,-0.716 0,-0.275 -0.049,-0.551 0.149,-0.551 0.495,0 1.239,0.221 1.884,0.441 1.686,0.606 4.364,2.039 5.406,3.472 0.397,0.55 1.14,2.093 1.834,4.297 0.1,0.331 0.249,0.551 0.545,0.551 0.2,0 0.348,0 0.398,-0.386 l 1.537,-8.264 h 0.497 c 0.743,0.826 1.536,1.983 1.834,2.809 C 0.05,-1.213 0.099,-0.771 0,0" />
          </g>
          <g
             transform="translate(246.2466,360.3057)"
             id="g973">
            <path
               inkscape:connector-curvature="0"
               id="path975"
               style="fill:#231f20;fill-opacity:1;fill-rule:evenodd;stroke:none"
               d="m 0,0 v 19.286 c 0,2.92 -1.388,4.903 -3.719,6.172 -1.289,0.716 -3.224,1.268 -4.216,1.268 -0.595,0 -0.942,-0.442 -1.338,-1.268 l -1.538,-3.197 c 1.835,0.055 3.918,-0.441 5.158,-1.432 1.041,-0.826 1.934,-1.764 1.934,-3.802 V 3.142 h -1.14 -3.125 c -0.843,0 -1.24,0.054 -1.537,-0.112 C -9.72,2.92 -9.869,2.92 -10.017,2.535 l -1.686,-4.187 0.198,-0.166 c 0.645,0.441 1.537,0.385 2.628,0.385 H -1.14 C -0.347,-1.433 0,-0.882 0,0" />
          </g>
          <g
             transform="translate(271.1543,362.8955)"
             id="g977">
            <path
               inkscape:connector-curvature="0"
               id="path979"
               style="fill:#231f20;fill-opacity:1;fill-rule:evenodd;stroke:none"
               d="m 0,0 v 0.44 h -5.059 c -0.396,0 -0.347,0.331 -0.198,0.442 0.893,0.77 1.29,1.597 1.884,2.92 0.695,1.598 0.794,4.464 0.794,8.486 0,5.235 -0.496,7.879 -1.736,9.257 -1.388,1.543 -3.173,1.873 -5.455,1.873 h -6.645 c -0.992,0 -1.687,0.387 -2.182,1.488 h -0.397 l -1.587,-2.424 c -0.198,-0.276 -0.496,-0.882 -0.496,-1.268 0,-0.385 0,-0.771 0.298,-1.212 0.644,-0.992 1.835,-1.322 2.728,-1.322 h 6.843 c 1.637,0 2.628,-0.056 3.372,-0.661 1.24,-0.992 1.389,-3.416 1.389,-7.99 0,-4.684 -0.099,-7.053 -0.942,-8.156 C -8.183,0.771 -9.323,0.44 -10.663,0.44 h -9.174 c -0.744,0 -0.992,-0.219 -1.19,-0.879 l -0.943,-3.033 v -0.549 h 19.689 c 0.743,0 0.991,0.218 1.339,1.21 z" />
          </g>
          <g
             transform="translate(288.4365,352.9219)"
             id="g981">
            <path
               inkscape:connector-curvature="0"
               id="path983"
               style="fill:#231f20;fill-opacity:1;fill-rule:evenodd;stroke:none"
               d="m 0,0 v 27.441 c 0,1.984 -0.794,3.636 -2.728,5.289 -0.744,0.663 -3.124,1.654 -4.066,1.654 -0.645,0 -1.042,-0.385 -1.389,-1.156 l -1.438,-2.921 c 1.983,-0.441 5.902,-1.324 5.902,-5.18 V -5.345 h 0.396 C -1.488,-4.408 0,-2.92 0,0" />
          </g>
          <g
             transform="translate(301.6846,363.2812)"
             id="g985">
            <path
               inkscape:connector-curvature="0"
               id="path987"
               style="fill:#231f20;fill-opacity:1;fill-rule:evenodd;stroke:none"
               d="m 0,0 v 9.533 5.95 c 0,2.481 -0.446,4.079 -2.282,5.841 -0.992,0.937 -3.868,2.535 -4.712,2.646 -0.644,0.109 -1.139,-0.111 -1.486,-0.883 l -1.439,-3.085 c 0.645,-0.221 2.776,-1.157 3.818,-1.816 1.142,-0.718 2.232,-2.207 2.232,-3.97 V -0.496 -4.849 h 0.595 C -1.19,-3.361 0,-2.535 0,0" />
          </g>
          <g
             transform="translate(314.3369,380.1426)"
             id="g989">
            <path
               inkscape:connector-curvature="0"
               id="path991"
               style="fill:#231f20;fill-opacity:1;fill-rule:evenodd;stroke:none"
               d="m 0,0 c 0,0.992 -0.596,2.259 -1.735,3.582 -1.29,1.487 -4.119,3.472 -5.407,3.472 -0.644,0 -1.19,-0.772 -1.636,-1.599 L -10.067,3.196 V 2.92 c 0.892,-0.385 2.925,-1.322 3.768,-1.873 1.439,-0.937 2.133,-2.259 2.133,-3.472 0,-1.047 -0.397,-2.424 -0.844,-4.077 -0.297,-1.048 -1.685,-4.464 -2.132,-5.345 l 0.05,-0.384 c 0.893,-0.057 2.28,1.045 2.48,1.377 0.942,1.21 2.281,3.526 3.223,5.675 C -0.794,-3.802 0,-1.818 0,0" />
          </g>
          <g
             transform="translate(335.1641,363.832)"
             id="g993">
            <path
               inkscape:connector-curvature="0"
               id="path995"
               style="fill:#231f20;fill-opacity:1;fill-rule:evenodd;stroke:none"
               d="m 0,0 v 13.721 c 0,6.722 -2.628,8.76 -7.24,8.76 h -5.504 -1.142 c -0.991,0 -1.387,0.387 -1.885,1.489 h -0.346 l -1.637,-2.424 c -0.198,-0.275 -0.495,-0.938 -0.495,-1.322 0,-0.387 0,-0.773 0.297,-1.213 0.794,-1.047 1.587,-1.268 2.282,-1.268 h 2.975 4.314 c 3.274,0 4.563,-1.1 4.563,-5.4 V -5.233 l 0.447,-0.056 C -1.289,-4.021 0,-2.645 0,0" />
          </g>
          <g
             transform="translate(348.0615,363.2812)"
             id="g997">
            <path
               inkscape:connector-curvature="0"
               id="path999"
               style="fill:#231f20;fill-opacity:1;fill-rule:evenodd;stroke:none"
               d="m 0,0 v 9.533 5.95 c 0,2.481 -0.446,4.079 -2.281,5.841 -0.992,0.937 -3.868,2.535 -4.712,2.646 -0.645,0.109 -1.14,-0.111 -1.487,-0.883 l -1.439,-3.085 c 0.645,-0.221 2.777,-1.157 3.819,-1.816 1.141,-0.718 2.232,-2.207 2.232,-3.97 V -0.496 -4.849 h 0.595 C -1.19,-3.361 0,-2.535 0,0" />
          </g>
          <g
             transform="translate(366.0078,363.1162)"
             id="g1001">
            <path
               inkscape:connector-curvature="0"
               id="path1003"
               style="fill:#231f20;fill-opacity:1;fill-rule:evenodd;stroke:none"
               d="m 0,0 -1.885,16.586 c -0.248,2.148 -0.743,3.526 -1.735,4.685 -1.389,1.651 -4.909,2.918 -6.298,2.918 -0.645,0 -0.844,-0.384 -1.19,-1.101 l -1.489,-3.252 c 1.191,0 4.216,-0.551 5.455,-1.651 0.993,-0.882 1.339,-1.93 1.538,-3.416 l 0.645,-4.686 C -4.463,6.447 -5.405,5.345 -6.496,4.243 -8.083,2.7 -10.613,1.322 -12.943,0.441 l -0.1,-0.166 -1.041,-3.692 c -0.05,-0.22 -0.149,-0.496 -0.149,-0.716 0,-0.275 -0.049,-0.551 0.149,-0.551 0.496,0 1.239,0.221 1.884,0.441 1.686,0.606 4.364,2.039 5.406,3.472 0.397,0.55 1.141,2.093 1.835,4.297 0.1,0.331 0.248,0.551 0.545,0.551 0.199,0 0.348,0 0.397,-0.386 l 1.538,-8.264 h 0.496 c 0.744,0.826 1.537,1.983 1.834,2.809 C 0.05,-1.213 0.1,-0.771 0,0" />
          </g>
          <g
             transform="translate(377.6953,373.9717)"
             id="g1005">
            <path
               inkscape:connector-curvature="0"
               id="path1007"
               style="fill:#231f20;fill-opacity:1;fill-rule:evenodd;stroke:none"
               d="m 0,0 v 0.44 h -7.797 c -0.275,0 -0.468,-0.276 -0.551,-0.771 l -0.44,-2.976 v -0.441 h 7.768 c 0.304,0 0.497,0.332 0.607,1.048 z" />
          </g>
          <g
             transform="translate(412.3154,362.8955)"
             id="g1009">
            <path
               inkscape:connector-curvature="0"
               id="path1011"
               style="fill:#231f20;fill-opacity:1;fill-rule:evenodd;stroke:none"
               d="m 0,0 v 0.44 h -5.058 c -0.397,0 -0.347,0.331 -0.199,0.442 0.894,0.77 1.29,1.597 1.885,2.92 0.694,1.598 0.793,4.464 0.793,8.486 0,5.235 -0.496,7.879 -1.735,9.257 -1.389,1.543 -3.174,1.873 -5.457,1.873 h -6.644 c -0.991,0 -1.686,0.387 -2.182,1.488 h -0.397 l -1.587,-2.424 c -0.197,-0.276 -0.495,-0.882 -0.495,-1.268 0,-0.385 0,-0.771 0.298,-1.212 0.644,-0.992 1.834,-1.322 2.727,-1.322 h 6.844 c 1.636,0 2.628,-0.056 3.372,-0.661 1.239,-0.992 1.389,-3.416 1.389,-7.99 0,-4.684 -0.1,-7.053 -0.943,-8.156 C -8.183,0.771 -9.323,0.44 -10.662,0.44 h -9.175 c -0.744,0 -0.991,-0.219 -1.19,-0.879 l -0.943,-3.033 v -0.549 h 19.689 c 0.744,0 0.992,0.218 1.34,1.21 z" />
          </g>
          <g
             transform="translate(387.582,352.9219)"
             id="g1013">
            <path
               inkscape:connector-curvature="0"
               id="path1015"
               style="fill:#231f20;fill-opacity:1;fill-rule:evenodd;stroke:none"
               d="m 0,0 v 27.441 c 0,1.984 -0.794,3.636 -2.729,5.289 -0.743,0.663 -3.123,1.654 -4.066,1.654 -0.644,0 -1.041,-0.385 -1.389,-1.156 l -1.437,-2.921 c 1.983,-0.441 5.901,-1.324 5.901,-5.18 V -5.345 h 0.397 C -1.488,-4.408 0,-2.92 0,0" />
          </g>
          <g
             transform="translate(363.5488,502.2847)"
             id="g1125">
            <path
               inkscape:connector-curvature="0"
               id="path1127"
               style="fill:#f58614;fill-opacity:1;fill-rule:evenodd;stroke:none"
               d="m 0,0 c 0,-33.088 -26.823,-59.911 -59.911,-59.911 -33.088,0 -59.91,26.823 -59.91,59.911 0,33.087 26.822,59.911 59.91,59.911 C -26.823,59.911 0,33.087 0,0" />
          </g>
          <g
             transform="translate(331.8418,452.9307)"
             id="g1129">
            <path
               inkscape:connector-curvature="0"
               id="path1131"
               style="fill:#ffffff;fill-opacity:1;fill-rule:evenodd;stroke:none"
               d="m 0,0 c -11.528,6.646 -10.24,18.979 -3.469,28.469 l -7.851,4.202 C -21.341,25.631 -22.249,9.006 -15.513,0 Z" />
          </g>
          <g
             transform="translate(296.5425,452.9282)"
             id="g1133">
            <path
               inkscape:connector-curvature="0"
               id="path1135"
               style="fill:#ffffff;fill-opacity:1;fill-rule:evenodd;stroke:none"
               d="m 0,0 15.11,0.002 c -3.932,7.92 -3.836,18.411 -0.298,26.373 4.692,10.558 19.318,16.4 18.965,29.703 C 33.307,73.706 15.851,90.654 1.192,98.712 11.775,78.065 -46.988,52.975 -0.595,29.25 c 0,0 1.339,3.627 2.525,5.783 1.092,1.982 3.215,4.831 3.215,4.831 C -22.664,52.975 7.81,71.145 5.605,90.912 12.63,83.279 23.085,67.688 21.992,57.062 20.908,46.53 11.159,42.116 5.578,34.167 -0.066,26.127 -0.986,11.659 0,0" />
          </g>
          <g
             transform="translate(294.8369,478.8872)"
             id="g1137">
            <path
               inkscape:connector-curvature="0"
               id="path1139"
               style="fill:#ffffff;fill-opacity:1;fill-rule:evenodd;stroke:none"
               d="M 0,0 C 0,0 -3.644,1.721 -5.848,3.047 -9.07,4.986 -13.63,8.74 -13.63,8.74 c 3.391,-12.065 3.595,-26.365 -5.772,-34.699 H -1.749 C -2.069,-15.782 -1.676,-8.387 0,0" />
          </g>
        </g>
      </g>
    </g>
  </g>
</svg>
