<?xml version="1.0" encoding="utf-8"?>
<!-- Generator: Adobe Illustrator 22.0.1, SVG Export Plug-In . SVG Version: 6.00 Build 0)  -->
<svg version="1.1" id="Layer_1" xmlns="http://www.w3.org/2000/svg" xmlns:xlink="http://www.w3.org/1999/xlink" x="0px" y="0px"
	 width="250.63px" height="250.44px" viewBox="0 0 250.63 250.44" style="enable-background:new 0 0 250.63 250.44;"
	 xml:space="preserve">
<path style="fill:#C2A02E;" d="M249.53,110.94c-0.07-0.63-0.15-1.27-0.23-1.9C241.44,47.85,189.32,0.5,126.06,0.13h-0.68h-0.01
	h-0.03h-0.68C61.41,0.47,9.28,47.82,1.41,109.02c-0.1,0.63-0.17,1.27-0.23,1.9c-0.53,4.67-0.8,9.4-0.8,14.2
	c0,68.59,55.25,124.28,123.67,125h1.26h0.03h0.04h1.26c68.44-0.7,123.7-56.39,123.7-124.98
	C250.33,120.34,250.05,115.61,249.53,110.94z"/>
<path style="fill:#1C3F94;" d="M125.36,35.56c-49.47,0-89.58,40.09-89.58,89.56c0,49.45,40.09,89.56,89.55,89.56
	c49.47,0,89.56-40.1,89.56-89.56C214.9,75.68,174.82,35.57,125.36,35.56"/>
<path style="fill:#FFFFFF;" d="M246.22,111.12c0.02,0.34,0.03,0.68,0.03,1.03c0,7.95-6.45,14.42-14.42,14.42
	c-7.13-0.01-13.05-5.19-14.21-11.98c-0.06-0.48-0.11-0.94-0.17-1.42c-0.4-2.96-0.91-5.9-1.57-8.76
	c-9.32-40.91-45.64-71.53-89.23-72.12c-0.44-0.01-0.86-0.01-1.3-0.01c-0.43,0-0.85,0-1.28,0.01c-43.59,0.57-79.93,31.2-89.26,72.09
	c-0.65,2.88-1.18,5.81-1.55,8.77c-0.07,0.47-0.12,0.94-0.17,1.4c-1.18,6.8-7.09,11.97-14.22,11.97c-7.96,0-14.42-6.45-14.42-14.41
	c0-0.35,0.01-0.68,0.03-1.02c0.06-0.48,0.12-0.97,0.18-1.47c0.45-3.42,1.01-6.8,1.73-10.13C18.13,44.74,66.73,3.64,124.95,3.44
	c0.14,0,0.25-0.01,0.39-0.01h0.03h0.01c0.13,0,0.26,0.01,0.38,0.01C184,3.64,232.59,44.76,244.32,99.53
	c0.71,3.34,1.29,6.71,1.73,10.12C246.1,110.15,246.16,110.64,246.22,111.12 M247.02,125.15c0-1.26-0.03-2.5-0.07-3.75
	c-2.9,4.71-7.93,8-13.85,8.4c-5.93,0.43-11.38-2.12-14.91-6.35c0.01,0.54,0.02,1.12,0.02,1.67c-0.01,50.85-40.89,92.17-91.58,92.84
	c-0.44,0.01-0.86,0.01-1.28,0.01c-0.45,0-0.87,0-1.31-0.01c-50.68-0.67-91.56-41.99-91.55-92.84c0-0.56,0-1.13,0.01-1.71
	c-3.52,4.25-8.97,6.8-14.9,6.37c-5.94-0.41-10.97-3.71-13.87-8.41c-0.04,1.26-0.05,2.51-0.05,3.75
	C3.68,191.89,57.46,246.09,124.04,246.8c0.42,0,0.84,0.02,1.26,0.02h0.03h0.04c0.42,0,0.84-0.02,1.26-0.02
	C193.25,246.12,247.01,191.91,247.02,125.15"/>
<path style="fill:#C2A02E;" d="M121.18,224.93c0,0-0.44-0.34-3.79-0.59c-3.35-0.24-8.21-0.87-11.12-1.45l-0.17,0.94
	c0,0,0.83,0.11,1.93,0.2c1.11,0.1,1.51,0.36,2.04,0.95c0.54,0.58,0.65,1.1,0.35,3.07c-0.28,1.97-1.09,7.65-1.09,7.65
	s-0.02,1.03-0.84,1.72c-0.84,0.69-1.49,0.68-2.21,0.6c-0.73-0.04-1.95-0.27-1.95-0.27l-0.13,0.75c0,0,5.51,0.95,9.78,1.29
	c0,0,5.33,0.79,8.12-0.54c2.79-1.34,4.46-3.95,4.46-6.97C126.57,229.29,124.37,226.22,121.18,224.93 M118.11,238.85
	c-2.16,0.69-4.23,0.11-4.23,0.11l1.3-14.01c3,0.15,4.09,0.87,4.66,1.34c0.59,0.47,2.65,2.49,2.71,5.93
	C122.61,235.68,120.26,238.16,118.11,238.85 M66.96,205.74c0,0,1.56,1.22,5.93,3.94c4.35,2.72,6.4,3.65,6.4,3.65l-2.68,5.32
	l-0.71-0.48c0,0,1.43-1.81,0.47-4.38c-0.85-2.21-3.52-3.25-3.52-3.25l-3.34,5.69c0,0,0.31,0.56,1.78,0.39
	c1.48-0.16,2.01-1.84,2.01-1.84l0.78,0.4l-3.57,6.33l-0.67-0.41c0,0,0.96-1,0.52-2.44c-0.29-0.98-1.29-1.7-1.29-1.7l-3.4,5.81
	c2.44,1.49,3.61,1.96,5.59,1.55c1.99-0.43,3.03-2.79,3.03-2.79l0.7,0.37l-2.77,5.41c0,0-2.38-1.17-5.82-3.2
	c-3.44-2.01-8.45-5.43-8.45-5.43l0.5-0.68c0,0,1.34,1.19,2.61,1.06c1.27-0.13,1.73-1.05,1.73-1.05s3.43-5.09,4.82-7.33
	c1.4-2.23-0.26-3.57-0.26-3.57l-0.9-0.68L66.96,205.74 M154.58,220.27c0,0,3.19,2.55,4.86,3.74c1.65,1.21,5.42,3.86,5.42,3.86
	s0.33-4.28,0.43-5.77c0.08-1.45,0.15-5.91,0.15-5.91c3.17-1.33,6.8-3.29,6.8-3.29l0.34,0.78c-2.95,1.24-1.93,3.33-1.93,3.33
	s3.02,5.95,4.37,8.52c1.35,2.6,3.71,0.92,3.71,0.92l0.4,0.76c0,0-3.18,1.61-4.75,2.34c-1.55,0.72-5.3,2.36-5.3,2.36l-0.25-0.86
	c3.12-1.34,1.72-3.63,1.72-3.63l-3.61-7.68c0,0-0.18,3.92-0.36,6.74c-0.19,2.82-0.62,6.63-0.62,6.63s-1.1-0.72-3.79-2.47
	c-2.69-1.74-7.96-5.96-7.96-5.96s1.51,4.95,2.36,7.88c0.83,2.94,4.28,1.41,4.28,1.41l0.27,0.78c0,0-1.07,0.39-4.24,1.31
	c-3.17,0.93-4.35,1.08-4.35,1.08l-0.1-0.69c3.36-0.69,2.39-3.52,2.39-3.52s-1.76-5.97-2.59-8.73c-0.83-2.76-3.82-1.39-3.82-1.39
	l-0.19-0.86C148.24,221.95,152.14,221.07,154.58,220.27 M199.3,212.61c0,0-0.8,0.89-2.35,0.6c-1.55-0.3-5.95-2.8-7.56-3.66
	c-1.6-0.86-3.29-1.86-3.29-1.86s-1.68-1.11-1.15-2.86c0,0-0.93,0.77-3.43,2.45c-2.5,1.67-3.58,2.31-3.58,2.31s0.97,0.1,1.43,0.25
	c0.45,0.17,0.67,0.11,0.83,0.99c0.18,0.92,1.37,8.67,1.48,10.14c0.11,1.45,0.42,2.68-1.43,4.63l0.34,0.76c0,0,1.37-0.68,3.84-2.15
	l2.45-1.47l-0.46-0.74c0,0-1.24,0.89-2.06,0.54c-0.83-0.36-0.91-0.79-1.05-1.69c-0.13-0.89-0.19-2.08-0.19-2.08s1.03-0.54,3.26-2.01
	c2.21-1.46,3.21-2.29,3.21-2.29l2.48,1.42c0,0,1.32,1.2-0.24,2.46l-1,0.73l0.49,0.7c0,0,2.47-1.63,4.91-3.6
	c2.45-1.94,3.61-2.94,3.61-2.94L199.3,212.61z M182.9,216.99l-1.2-7.18l6.39,3.87C184.02,216.69,182.9,216.99,182.9,216.99
	 M32.51,160.88c0,0,1.49,3.82,2.76,6.65c1.53,3.39,3.7,7.22,3.7,7.22l-7.26,4.21l-0.4-0.73c0,0,3.07-1.76,4.09-4.65
	c0.73-2.09,0.1-2.96,0.1-2.96s-9.45,4.79-10.2,5.24c-0.77,0.44-0.97,0.64-1.05,2.12c-0.1,1.48,0.81,2.28,0.81,2.28l-0.68,0.47
	c0,0-2.02-3.63-2.84-5.46c-0.57-1.24-2.73-6.38-2.73-6.38l0.76-0.33c0,0,0.7,2.47,2.19,2.84c0.66,0.15,1.28-0.03,1.28-0.03
	l10.56-4.9c0,0-0.69-1.61-3.38-2.16c-2.89-0.6-5.18,0.67-5.18,0.67L24.72,164L32.51,160.88z M40.65,177.28c0,0,0.97,1.74,3.93,5.92
	c2.96,4.24,4.47,5.87,4.47,5.87l-4.53,3.86l-0.47-0.7c0,0,2.03-1.13,2.13-3.86c0.09-2.38-1.97-4.37-1.97-4.37l-5.3,3.93
	c0,0,0.06,0.64,1.49,1.06c1.41,0.42,2.57-0.93,2.57-0.93l0.57,0.67l-5.75,4.44l-0.47-0.64c0,0,1.28-0.53,1.43-2.03
	c0.12-1.04-0.53-2.07-0.53-2.07l-5.39,4.03c1.63,2.3,2.55,3.22,4.53,3.59c2,0.38,3.88-1.39,3.88-1.39l0.49,0.62l-4.63,3.91
	c0,0-1.74-2.02-4.12-5.23c-2.38-3.19-5.68-8.3-5.68-8.3l0.73-0.43c0,0,0.75,1.63,1.98,2c1.24,0.39,2.01-0.3,2.01-0.3
	s5.14-3.34,7.31-4.86c2.15-1.51,1.14-3.37,1.14-3.37l-0.55-1L40.65,177.28 M126.73,224.65c0,0,1.98,0.06,7.12-0.35
	c5.11-0.4,7.29-0.87,7.29-0.87l1.05,5.87l-0.86,0.05c0,0,0.06-2.33-2.23-3.81c-2.01-1.27-4.77-0.52-4.77-0.52l0.69,6.56
	c0,0,0.58,0.26,1.68-0.74c1.09-1.01,0.51-2.67,0.51-2.67l0.87-0.17l0.88,7.23l-0.77,0.08c0,0,0.18-1.38-1.02-2.28
	c-0.84-0.64-2.07-0.6-2.07-0.6l0.74,6.7c2.83-0.23,4.06-0.55,5.41-2.07c1.34-1.54,0.78-4.06,0.78-4.06l0.77-0.11l1,5.99
	c0,0-2.63,0.47-6.61,0.88c-3.94,0.44-10,0.67-10,0.67l-0.01-0.85c0,0,1.79,0.18,2.74-0.68c0.94-0.88,0.76-1.9,0.76-1.9
	s-0.27-6.12-0.48-8.74c-0.21-2.64-2.32-2.71-2.32-2.71l-1.13-0.03L126.73,224.65 M18.28,165.23c0,0-0.59-1.05,0.21-2.42
	c0.81-1.36,4.62-4.68,5.97-5.9c1.35-1.23,2.85-2.48,2.85-2.48s1.61-1.24,3.08-0.13c0,0-0.43-1.13-1.18-4.04
	c-0.75-2.92-0.97-4.15-0.97-4.15s-0.44,0.9-0.73,1.27c-0.29,0.38-0.32,0.59-1.22,0.45c-0.9-0.13-8.62-1.59-10.04-1.97
	c-1.41-0.38-2.66-0.51-3.88-2.89l-0.84,0.06c0,0,0.18,1.52,0.75,4.32l0.56,2.82l0.84-0.19c0,0-0.42-1.46,0.19-2.12
	c0.61-0.66,1.06-0.6,1.95-0.43c0.89,0.17,2.02,0.51,2.02,0.51s0.18,1.18,0.82,3.76c0.64,2.55,1.08,3.78,1.08,3.78l-2.14,1.85
	c0,0-1.58,0.85-2.24-1.05l-0.37-1.2l-0.81,0.26c0,0,0.72,2.85,1.75,5.82c1.01,2.96,1.58,4.38,1.58,4.38L18.28,165.23z M19.6,148.29
	l7.18,1.28l-5.8,4.73C19.51,149.46,19.6,148.29,19.6,148.29 M203.83,189.58c0.38,0.98,0.94,1.18,1.54,1.7
	c0.61,0.52,8.83,7.47,8.83,7.47l-3.38,3.84c0,0-4.04-0.33-8.15-1.06c-4.12-0.72-5.97-1.08-5.97-1.08l5.73,6.22
	c0,0,1.33,1.45,3.06,0.16l1.17-1.09l0.65,0.57c0,0-4.24,4.11-6.06,5.55l-0.55-0.59c0,0,1.82-1.18,0.55-3.14l-6.52-7.26
	c0,0-1.25-1.65-3.15-0.37l-0.84,0.76l-0.57-0.67c0,0,3.32-2.79,4.8-4.27c0,0,8.44,1.94,15.98,2.2l-7.01-6.08
	c0,0-1.42-1.74-2.86-0.85c-1.47,0.88-2.03,1.76-2.03,1.76l-0.56-0.54c0,0,2.1-2.18,3.38-3.81c1.29-1.6,1.5-1.93,1.5-1.93l0.77,0.58
	C204.13,187.62,203.47,188.63,203.83,189.58 M220.74,187.41c1.22-0.47,1.84-1.91,1.84-1.91l0.64,0.46c0,0-1.66,2.78-3.21,5.02
	c-1.57,2.21-3.59,4.69-3.59,4.69l-0.63-0.54c0,0,0.29-0.2,0.71-1.4c0.42-1.19-0.48-2.02-0.48-2.02s-5.91-4.67-6.99-5.45
	c-1.06-0.79-1.34-1.23-2.52-1.06c-1.17,0.19-1.53,1.07-1.53,1.07l-0.68-0.55c0,0,1.24-1.46,2.55-3.32c1.31-1.86,3.34-5.06,3.34-5.06
	l0.76,0.51c0,0-0.58,0.56-0.83,1.78c-0.26,1.24,0.65,2.02,0.65,2.02s6.49,4.63,7.39,5.24C219.06,187.49,219.53,187.87,220.74,187.41
	 M225.12,164.7l7.27,3c0,0-1.05,3.05-3.2,7.68c-2.16,4.64-4.22,8.12-4.22,8.12l-0.75-0.39c1.71-2.65-0.45-3.94-0.45-3.94
	s-5.59-3.18-8.03-4.6c-2.43-1.43-3.61,1.18-3.61,1.18l-0.74-0.44c0,0,1.07-1.88,2.49-4.52c1.42-2.64,2.31-5.09,2.31-5.09l0.76,0.37
	c-1.82,3.16,0.78,4.36,0.78,4.36l9.92,4.94c0,0,1.94-2.52,1.06-5.81c-0.9-3.3-3.95-3.94-3.95-3.94L225.12,164.7z M238.33,143
	c0,0-0.01,1.21-1.38,2c-1.35,0.8-6.33,1.83-8.1,2.22c-1.79,0.39-3.69,0.77-3.69,0.77s-1.99,0.28-2.76-1.41c0,0-0.17,1.21-0.94,4.11
	c-0.78,2.9-1.19,4.09-1.19,4.09s0.82-0.57,1.25-0.76c0.44-0.18,0.56-0.35,1.28,0.21c0.74,0.55,6.74,5.61,7.79,6.64
	c1.04,1.04,2.06,1.75,1.97,4.43l0.75,0.34c0,0,0.6-1.41,1.47-4.13l0.89-2.73l-0.83-0.24c0,0-0.35,1.48-1.2,1.76
	c-0.85,0.26-1.23,0-1.9-0.59c-0.7-0.59-1.52-1.43-1.52-1.43s0.42-1.1,1.12-3.66c0.7-2.57,0.91-3.84,0.91-3.84l2.8-0.56
	c0,0,1.77,0.03,1.41,2l-0.25,1.23l0.81,0.17c0,0,0.78-2.83,1.35-5.91c0.55-3.09,0.77-4.6,0.77-4.6L238.33,143z M228.86,157.1
	l-5.62-4.63l7.36-1.27C229.52,156.13,228.86,157.1,228.86,157.1 M51.3,191.32c0,0,2.9,3.25,4.45,4.71c0,0-1.68,8.55-1.71,16.15
	l5.89-7.25c0,0,1.71-1.48,0.78-2.91c-0.94-1.44-1.86-1.99-1.86-1.99l0.55-0.58c0,0,2.27,2.04,3.92,3.3
	c1.68,1.23,2.02,1.42,2.02,1.42l-0.53,0.79c0,0-1.05-0.6-2-0.21c-0.97,0.4-1.16,0.97-1.67,1.59c-0.51,0.63-7.22,9.14-7.22,9.14
	l-3.97-3.3c0,0,0.19-4.07,0.78-8.22c0.6-4.18,0.91-6.06,0.91-6.06l-6.08,5.97c0,0-1.41,1.38-0.06,3.1l1.15,1.14l-0.55,0.67
	c0,0-4.28-4.13-5.8-5.92l0.6-0.59c0,0,1.23,1.8,3.18,0.47l7.1-6.8c0,0,1.63-1.32,0.27-3.18l-0.79-0.83L51.3,191.32z M90.22,217.83
	c4.88,2.03,7.63,6.74,5.76,11.27c-2.05,4.92-7.46,6.2-12.53,4.09c-5.39-2.23-7.75-7.13-5.94-11.51c1.64-3.94,6.5-6.4,12.68-3.85
	L90.22,217.83z M89.3,218.55c-2.7-1.1-5.85,0.47-7.48,4.4c-1.62,3.91-0.93,8.07,2.52,9.49c2.54,1.07,5.5-0.2,7.24-4.4
	c1.9-4.54,0.84-8.17-2.27-9.47L89.3,218.55z"/>
<path style="fill:#C2A02E;" d="M78.77,19.89c0.92-0.82,3.85-1.85,3.85-1.85l7.33-2.68l0.33,0.79c0,0-1.11,0.07-1.62,1.15
	c-0.4,0.85,0.07,1.74,0.24,2.19c0.17,0.45,2.73,7.51,3.19,8.59c0.45,1.06,0.69,1.4,1.21,1.61c0.51,0.21,1.55-0.06,1.55-0.06
	l0.21,0.78c0,0-1.93,0.65-3.64,1.24c-1.71,0.55-5.7,2.31-5.7,2.31l-0.33-0.82c0.59-0.25,1.99-0.74,2.38-1.31
	c0.4-0.54,0.66-1.08,0.42-1.97c-0.25-0.9-3.94-9.46-4.07-9.67c-0.14-0.2-0.36-0.44-1.07-0.71c-0.69-0.27-1.33-0.13-1.72,0.02
	c-0.37,0.15-0.81,0.5-0.48,0.9c0,0,0.79,0.93,0.47,1.86c-0.33,0.96-1.05,1.12-1.57,1.23C78.44,23.79,76.31,22.07,78.77,19.89
	 M96.82,28.87l0.23,0.78c0,0,4.37-1.23,5.49-1.48c1.1-0.25,4.51-1.01,4.51-1.01l-0.15-0.83c0,0-1.61,0.38-2.33,0
	c-0.75-0.34-1.09-0.85-1.29-1.54c-0.21-0.68-2.37-9.18-2.37-9.18s1.7-3.14,3.82-3.1c2.14,0.06,3.17,1.56,3.32,3.24
	c0.37,4.07-0.97,5.15-0.62,7.59c0.2,1.51,1.48,3.27,3.42,3.27c0.6,0,2.78-0.24,3.73-2.06c1.06-2,0.29-3.12-0.87-3.42
	c-1.16-0.28-2.2,1.13-1.74,2.12c0.37,0.82,1.01,1,1.01,1s-0.57,1.43-2.57,1.18c-1.33-0.17-2.17-1.73-1.62-2.99
	c0.61-1.34,2.7-4.43,3.14-5.64c0,0,0.62-1.34,0.07-3.19c-0.57-1.84-2.51-2.63-3.21-2.74c-0.7-0.12-2.68-0.58-4.94,0.61
	c-2.26,1.18-3.3,2.78-3.3,2.78l-0.4-1.78l-8.06,2.25l0.22,0.86c0,0,1.23-0.38,1.74-0.45c0.76-0.11,1.7,0.18,2.08,1.14
	c0.35,0.78,2.94,9.14,3.01,9.46c0.2,1.04,0.11,2.2-1.42,2.89C97.31,28.82,96.82,28.87,96.82,28.87 M207.37,44.32
	c-2.89-1.54-3.74,1.04-3.02,2.17c0.29,0.44,0.68,1.04,1.7,1.03c1.2,0,1.58-1.08,1.58-1.08c0.26-0.46,0.73-0.17,0.99,0.13
	c0.27,0.3,0.73,0.92,0.72,1.65c0,0.75-0.18,1.13-0.33,1.32c-0.16,0.2-6.93,6.48-7.66,7.02c-0.75,0.55-1.34,0.5-2,0.3
	c-0.63-0.17-1.7-1.3-2.13-1.75l-0.55,0.59c0,0,3.02,3.12,4.15,4.51c1.12,1.39,2.59,3.19,2.59,3.19l0.64-0.52
	c0,0-0.65-0.84-0.64-1.38c0.02-0.58,0.15-0.94,0.98-1.74c0.84-0.79,6.68-5.55,7.03-5.86c0.36-0.32,1.1-0.94,2.04-0.97
	c1.07-0.05,1.71,1.07,1.71,1.07l0.63-0.58l-5.37-6.14C210.42,47.28,208.46,44.9,207.37,44.32 M205.95,65.2l-0.65,0.48
	c0,0,2.57,3.68,3.16,4.63c0.61,0.96,2.41,3.88,2.41,3.88l0.71-0.42c0,0-0.87-1.37-0.76-2.18c0.09-0.81,0.46-1.29,1.02-1.69
	c0.56-0.41,7.8-5.18,7.8-5.18s3.57,0.56,4.23,2.56c0.66,2.02-0.36,3.63-1.9,4.31c-3.67,1.66-5.05,0.59-7.2,1.58
	c-1.37,0.66-2.67,2.09-2.19,4.37c0.18,0.83,1.14,2.74,3.16,3.1c2.03,0.37,3-0.71,2.89-1.88c-0.12-1.18-1.86-1.82-2.63-1.09
	c-0.64,0.62-0.48,1.45-0.48,1.45s-1.57-0.42-1.96-2.37c-0.26-1.3,1.03-2.46,2.41-2.34c1.45,0.12,4.87,1.19,6.15,1.25
	c0,0,1.48,0.21,3-0.91c1.54-1.12,1.83-3.01,1.68-4.11c-0.1-0.7-0.53-2.77-2.35-4.49c-1.85-1.72-3.68-2.18-3.68-2.18l1.53-0.95
	l-4.58-6.87l-0.71,0.47c0,0,0.62,0.86,0.86,1.57c0.24,0.71,0.36,1.64-0.38,2.31c-0.63,0.56-7.58,5.7-7.88,5.87
	c-0.92,0.5-2.02,0.8-3.13-0.4C206.17,65.64,205.95,65.2,205.95,65.2 M76.58,27.91c-0.05-0.66-1.27-0.62-2.08-0.31
	c-0.79,0.32-0.54,0.88-0.42,1.09c0.18,0.39,0.29,0.46,0.52,1.04c0.38,0.97-0.85,1.14-1.37,1.26c-0.63,0.15-1.79,0.28-3.81,0.73
	c-1.85,0.42-2.74,1.48-2.8,2.46c-0.05,0.64,0.01,2.82,0.03,3.07c0.04,0.41,0.12,0.64,0.56,0.69c0.43,0.06,1.05-0.12,1.05-0.12
	c0.74-0.2,0.68-0.91,0.6-1.13c-0.09-0.23-0.42-0.59-0.59-0.97c-0.22-0.52,0.08-1.04,0.88-1.22c0.8-0.2,3.78-0.77,4.95-1.06
	c1.17-0.33,1.91-0.96,2.1-1.64C76.44,31.04,76.58,27.91,76.58,27.91 M132.08,16.8c0.29-0.59-0.73-1.2-1.58-1.37
	c-0.83-0.19-0.92,0.42-0.95,0.66c-0.05,0.41,0.02,0.55-0.13,1.15c-0.22,1.02-1.34,0.5-1.84,0.3c-0.61-0.23-1.65-0.74-3.59-1.46
	c-1.77-0.67-3.08-0.27-3.7,0.5c-0.38,0.53-1.54,2.38-1.64,2.6c-0.18,0.38-0.26,0.61,0.08,0.89c0.34,0.28,0.94,0.47,0.94,0.47
	c0.74,0.23,1.07-0.39,1.13-0.63c0.04-0.24-0.03-0.71,0.04-1.13c0.11-0.56,0.63-0.82,1.4-0.54c0.78,0.27,3.58,1.46,4.73,1.83
	c1.16,0.38,2.14,0.24,2.67-0.21C130.24,19.35,132.08,16.8,132.08,16.8 M40.42,48.4c0,0,1.05-1.29,2.11-1.91
	c1.04-0.6,2.62-0.77,3.11-0.78c0.47-0.01,6.76,0.95,6.76,0.95s0.57,6.02,0.25,7.89c-0.39,2.37-1.78,3.18-1.78,3.18l0.66,0.64
	c0,0,0.83-1.03,1.7-1.93c0.87-0.88,3.17-3.08,3.17-3.08l-0.59-0.61c0,0-0.1,0.33-0.72,0.37c-0.61,0.04-0.92-0.37-1.1-1.26
	c-0.15-0.88-0.24-4.9-0.24-4.9s3.75,0.68,4.47,0.92c0.33,0.13,0.96,0.39,1.12,0.96c0.15,0.56-0.6,1.35-0.6,1.35l0.55,0.55
	c0,0,2.51-2.16,3.28-2.7c0.75-0.56,4.23-3.13,4.23-3.13l-0.55-0.7c0,0-0.42,0.39-0.9,0.64c-0.45,0.23-1.4,0.61-2.6,0.5
	c-1.21-0.12-2.14-0.36-3.24-0.64c-1.66-0.42-5.9-1.37-5.9-1.37s0.03-2.98,0.03-3.67c0-0.65,0.19-1.8,0.19-1.8
	c0.51-2.1,2.07-3.5,2.07-3.5l-0.56-0.6c0,0-0.84,0.61-1.49,1.12c-0.48,0.39-4.11,3.35-4.11,3.35l0.54,0.53c0,0,0.57-0.57,1.25-0.51
	c0.66,0.08,0.8,0.94,0.8,0.94l-0.02,3.92c0,0-2.3-0.28-3.44-0.6c-1.12-0.34-1-0.99-0.95-1.24c0.09-0.43,0.83-1.04,0.83-1.04
	l-0.62-0.67c0,0-2.24,2.08-3.22,3.06c-0.97,0.97-5.1,5.29-5.1,5.29L40.42,48.4z M37.91,50.13c0,0-2.3,2.8-3.28,3.99
	c-1.33,1.69-4.29,5.78-4.29,5.78l0.73,0.51c0,0,0-0.13,0.38-0.65c0.39-0.5,1.04-1.05,1.04-1.05c0.67-0.52,1.54-0.42,2.04-0.18
	c0.63,0.29,0.82,0.33,5.84,4.28c0,0,0.5,1.57,0.25,3.82c-0.2,1.83-1.81,3.65-4.25,3.62c-2.44-0.01-4.96-1.67-6.26-4.09
	c-1.3-2.43-1.02-4.41-1.02-4.41s-1.23,1.87-1.95,3.14c-0.83,1.4-2.14,3.64-2.59,4.71c-0.49,1.14-0.6,1.92-0.18,2.98
	c0.25,0.64,1.42,1.28,2.42,0.58c0.99-0.73,1.15-1.91,0.84-2.7c-0.37-1.01-1.51-1.01-1.51-1.01s-0.1-0.54,0.22-1.52
	c0.28-0.82,0.76-1.44,1.18-1.77c0.47-0.38,0.65-0.34,0.86-0.29c0.39,0.15,0.45,0.76,0.45,0.76c0.1,0.36,0.53,2.54,1.95,4.2
	c0.97,1.12,3.13,2.52,4.72,2.88c1.3,0.3,3.3,0.6,5.07-0.51c1.8-1.15,2.15-3.37,1.9-5.37c-0.27-2.38-1.22-4.3-1.22-4.3l3.81,2.91
	c0,0,1.15-1.51,1.93-2.63c0.66-0.94,2.69-3.11,2.69-3.11l-0.69-0.6c0,0-0.41,1.05-2.01,1.41c-0.98,0.22-1.6-0.4-1.6-0.4
	s-7.62-6.09-8.02-6.71c-0.5-0.77-0.2-1.76,0.05-2.28c0.23-0.51,1.11-1.4,1.11-1.4L37.91,50.13 M18.63,81.57c0,0-1.31,3.57-1.56,4.24
	C16.81,86.49,15.3,91,15.3,91s-1.32,3.9-0.66,5.7c0.46,1.31,1.84,1.18,2.19,0.95c0.34-0.23,1.37-1,1.21-2.75
	c-0.15-1.72-1.74-1.4-2.11-1.59c-0.36-0.2-0.25-1.55,0.85-2.45c1.08-0.87,2.03-0.47,2.03-0.47s8.04,2.86,8.99,3.33
	c1.47,0.71,1.58,1.97,1.49,2.62c-0.11,0.65-0.68,2.49-0.68,2.49l0.85,0.27c0,0,0.89-3.26,1.37-4.59c0.76-2.15,1.97-5.61,2.91-7.79
	c0.78-1.86,2.04-4.27,2.13-4.61c0.08-0.34-0.19-0.73-0.62-1.05c-0.42-0.31-1.52-0.43-2.03-0.43c-0.52-0.01-4.29,0.21-5.35-0.03
	c-1.07-0.23-0.99-1.28-0.99-1.28s1.81,0.55,2.55-1.1c0.36-0.88-0.07-2.08-1.26-2.31c-1.19-0.24-2.36,2.18-2.47,3.65
	c-0.1,1.49,0.56,2.52,2.57,3.59c2.01,1.07,4.22,1.35,4.22,1.35s0.02,1.66-0.28,2.75c-0.29,1.08-0.88,2.57-0.88,2.57
	s-10.38-4.22-11.03-4.53c-0.64-0.32-1.16-0.92-1.23-1.49c-0.07-0.56,0.42-1.85,0.42-1.85L18.63,81.57 M152.56,13.16
	c2.78,0.71,5.87,4.21,5.34,7.64c-0.5,3.35-1.97,5.02-4.08,6.36c-1.9,1.22-3.96,1.14-5.5,0.95c-0.79-0.09-4.46-0.93-6.36-1.15
	c-1.13-0.13-5.12-0.66-5.12-0.66l0.05-0.89c0,0,1.83,0.25,2.39,0.2c0.56-0.05,1.46-0.72,1.68-1.17c0.21-0.44,0.9-4.42,1.15-6.2
	c0.25-1.8,0.63-4.35,0.5-4.89c-0.13-0.73-1.6-1.78-2.31-1.59c-0.73,0.17-0.43,0.87-0.43,0.87c0.25,0.89-0.76,1.72-1.63,1.8
	c-0.59,0.05-2.54-0.16-2.03-2.17c0.41-1.54,2.78-1.53,5.11-1.28C144.02,11.29,149.63,12.41,152.56,13.16 M152.07,24.7
	c1.7-1.82,2.01-4.06,2.01-5.51c0-1.25-0.42-3.85-2.62-5.14c-1.75-1.02-3.75-1.22-3.75-1.22l-2.8,13.79c0,0,2.09,0.44,2.88,0.38
	C148.99,26.92,150.4,26.5,152.07,24.7 M178.86,37.25c0.57-1.42-0.58-2.44-1.56-2.26c-1.83,0.34-1.63,3.04-0.88,4.32
	c0.76,1.28,2.27,2.06,3.9,1.7c2.14-0.46,2.9-2.68,3.14-3.54c0.14-0.54,0.27-1.86,0.44-2.61c0.21-0.97,0.77-3.17,2.67-4.08
	c1.64-0.79,3.07,0.09,3.96,1.5c0.94,1.56,0.85,3.74,0.85,3.74s-1.74,0.87-2.97,2.38c-1.23,1.51-1.42,3.98-1.42,3.98
	s1.77-0.38,3.43-2.29c1.4-1.61,1.59-3.61,1.59-3.61s2.08-0.75,4.08-0.14c2.08,0.64,2.49,2.12,2.54,2.6
	c0.13,1.46-1.31,3.29-3.19,4.23c-1.93,0.98-4.44,1.64-5.13,4.23c-0.61,2.32,1.26,4.02,3.24,4.31c1.98,0.28,3.3-0.69,3.43-1.87
	c0.12-1.01-0.97-1.9-2.15-1.48c-1.16,0.4-0.91,1.92-0.91,1.92s-1.64,0.34-2.51-1.49c-0.33-0.7-0.1-2.02,1.03-2.48
	c1.46-0.62,3.81-0.76,5.16-0.91c1.62-0.17,2.38-0.42,3.51-1.52c1.02-1.02,1.6-3.33,0.42-5.2c-1.2-1.86-3.45-3.26-5.83-3.48
	c-2.23-0.18-3.51,0.51-3.51,0.51s0.28-1.33-0.26-2.96c-0.43-1.37-1.44-2.96-3.39-4.24c-2.22-1.43-4.84-1.3-6.46,0.58
	c-1.56,1.84-0.81,5.14-0.65,5.66c0.14,0.56,1.14,4.52-0.96,5.14c-2.42,0.73-3.01-1.81-3.01-1.81S178.53,38.1,178.86,37.25
	 M234.37,85.62c-2.6-6.15-7.81-7.82-11.71-6.15c-4.38,1.82-6.17,6.97-3.9,12.34c2.13,5.07,6.89,7.97,11.79,5.89
	c4.51-1.89,5.87-7.19,3.83-12.04L234.37,85.62z M233.22,85.53c1.32,3.09-0.5,6.42-5.04,8.34c-4.19,1.76-7.18,0.57-8.25-1.97
	c-1.45-3.45,0.99-6.87,4.88-8.52c3.94-1.66,7.28-0.55,8.41,2.12L233.22,85.53z M172.61,19.39c-5.98-2.97-11.02-0.81-12.9,2.99
	c-2.11,4.26-0.08,9.31,5.15,11.9c4.9,2.43,10.39,1.54,12.76-3.27c2.16-4.38-0.25-9.27-5-11.62L172.61,19.39z M171.69,20.07
	c3.01,1.49,3.8,5.2,1.61,9.61c-2,4.05-5.03,5.12-7.52,3.9c-3.34-1.65-3.73-5.86-1.86-9.63c1.9-3.83,5.13-5.18,7.75-3.88
	L171.69,20.07z"/>
<polygon style="fill:#C2A02E;" points="19.92,106.02 15.69,111.64 18.25,118.28 22.21,112.35 "/>
<polygon style="fill:#C2A02E;" points="230.86,106.02 235.09,111.65 232.52,118.3 228.54,112.37 "/>
<path style="fill:#C2A02E;" d="M125.36,45.79c-11.2,0-20.27,9.07-20.28,20.26c0,11.18,9.07,20.26,20.26,20.26
	c11.19,0,20.27-9.07,20.27-20.26C145.61,54.85,136.53,45.79,125.36,45.79z"/>
<g>
	<path style="fill:#C2A02E;" d="M130.99,38.97c-0.57-0.05-1.17-0.08-1.74-0.1l-0.87,5.29c0.55,0.08,1.08,0.16,1.6,0.26L130.99,38.97
		z"/>
	<path style="fill:#C2A02E;" d="M136.02,39.44c-0.57-0.08-1.16-0.15-1.75-0.22l-2.08,5.8c0.51,0.18,1.02,0.37,1.51,0.57
		L136.02,39.44z"/>
	<path style="fill:#C2A02E;" d="M140.31,49.8l7.04-8.2c-0.65-0.18-1.3-0.33-1.95-0.47l-6.29,7.63
		C139.53,49.09,139.92,49.46,140.31,49.8z"/>
	<path style="fill:#C2A02E;" d="M142.91,52.65l11.09-9.02c-0.69-0.24-1.36-0.47-2.06-0.69l-9.97,8.55
		C142.3,51.87,142.6,52.26,142.91,52.65z"/>
	<path style="fill:#C2A02E;" d="M137.2,47.39l4.21-7.11c-0.6-0.11-1.22-0.24-1.83-0.34l-3.76,6.62
		C136.29,46.83,136.76,47.1,137.2,47.39z"/>
	<path style="fill:#C2A02E;" d="M145.04,56.03l16.59-9.29c-0.76-0.35-1.51-0.69-2.28-1.04l-15.09,8.94
		C144.53,55.08,144.8,55.54,145.04,56.03z"/>
	<path style="fill:#C2A02E;" d="M146.5,59.6l23.71-8.3c-0.8-0.49-1.61-0.95-2.41-1.39l-21.82,8.25
		C146.16,58.64,146.35,59.1,146.5,59.6z"/>
	<path style="fill:#C2A02E;" d="M147.29,63.42l32.53-5.31c-0.81-0.67-1.62-1.32-2.47-1.95l-30.28,5.76
		C147.15,62.4,147.23,62.9,147.29,63.42z"/>
	<path style="fill:#C2A02E;" d="M147.45,66.05c0,0.43-0.03,0.83-0.06,1.23l42.66,0.63c-0.79-0.91-1.6-1.77-2.44-2.63l-40.16,0.5
		C147.45,65.88,147.45,65.97,147.45,66.05z"/>
	<path style="fill:#C2A02E;" d="M146.83,71.2l52.92,10c-0.67-1.11-1.36-2.22-2.07-3.32l-50.54-8.3
		C147.07,70.12,146.96,70.68,146.83,71.2z"/>
	<path style="fill:#C2A02E;" d="M145.67,74.75l61.75,23.37c-0.41-1.29-0.85-2.56-1.34-3.81l-59.89-20.93
		C146.03,73.84,145.87,74.31,145.67,74.75z"/>
	<path style="fill:#C2A02E;" d="M143.85,78.14l67.64,40.26c-0.12-1.47-0.27-2.92-0.46-4.35l-66.38-37.21
		C144.39,77.27,144.11,77.72,143.85,78.14z"/>
	<path style="fill:#C2A02E;" d="M141.44,81.18l49.58,42.79l0.02-4.3L142.5,80C142.17,80.4,141.81,80.79,141.44,81.18z"/>
	<path style="fill:#C2A02E;" d="M138.65,83.69l64.54,79.01c0.66-1.39,1.29-2.77,1.89-4.21l-65.23-75.76
		C139.44,83.06,139.05,83.37,138.65,83.69z"/>
	<path style="fill:#C2A02E;" d="M135.41,85.72l46.2,82.51l2.01-4.63l-46.85-78.65C136.33,85.21,135.89,85.48,135.41,85.72z"/>
	<path style="fill:#C2A02E;" d="M131.89,87.17l38.95,111.39c1.34-0.81,2.65-1.69,3.93-2.59L133.4,86.61
		C132.91,86.81,132.41,87.01,131.89,87.17z"/>
	<path style="fill:#C2A02E;" d="M128.27,87.94l18.97,116.89l4.32-2.21l-21.8-114.9C129.26,87.82,128.75,87.88,128.27,87.94z"/>
	<path style="fill:#C2A02E;" d="M125.34,88.16c-0.24,0-0.47-0.03-0.72-0.03l-1.47,123.32c0.76,0.02,1.47,0.06,2.23,0.06
		c0.74,0,1.46-0.04,2.2-0.06l-1.44-123.34C125.87,88.13,125.61,88.16,125.34,88.16z"/>
	<path style="fill:#C2A02E;" d="M125.36,43.93c0.21,0,0.44,0.03,0.67,0.03l0.05-5.19c-0.23,0-0.45-0.01-0.67-0.01
		c-0.24,0-0.48,0.01-0.72,0.01l0.08,5.19C124.95,43.95,125.15,43.93,125.36,43.93z"/>
	<path style="fill:#C2A02E;" d="M122.39,44.14l-0.87-5.28c-0.58,0.02-1.15,0.05-1.72,0.1l1,5.43
		C121.31,44.3,121.85,44.22,122.39,44.14z"/>
	<path style="fill:#C2A02E;" d="M118.57,44.99l-2.07-5.76c-0.6,0.06-1.17,0.13-1.77,0.21l2.33,6.12
		C117.56,45.35,118.05,45.17,118.57,44.99z"/>
	<path style="fill:#C2A02E;" d="M111.63,48.73l-6.25-7.6c-0.66,0.15-1.31,0.3-1.95,0.47l6.99,8.15
		C110.81,49.4,111.21,49.05,111.63,48.73z"/>
	<path style="fill:#C2A02E;" d="M108.76,51.46l-9.92-8.52c-0.68,0.22-1.37,0.45-2.06,0.69l11.01,8.98
		C108.11,52.21,108.42,51.82,108.76,51.46z"/>
	<path style="fill:#C2A02E;" d="M114.93,46.54l-3.74-6.59c-0.62,0.11-1.23,0.22-1.83,0.33l4.19,7.08
		C113.99,47.08,114.46,46.8,114.93,46.54z"/>
	<path style="fill:#C2A02E;" d="M106.45,54.59L91.44,45.7c-0.78,0.35-1.54,0.69-2.3,1.04l16.52,9.24
		C105.91,55.5,106.16,55.05,106.45,54.59z"/>
	<path style="fill:#C2A02E;" d="M104.72,58.12L82.99,49.9c-0.81,0.45-1.62,0.91-2.42,1.38l23.62,8.27
		C104.34,59.08,104.53,58.59,104.72,58.12z"/>
	<path style="fill:#C2A02E;" d="M103.63,61.89l-30.19-5.75c-0.83,0.63-1.66,1.28-2.48,1.96l32.44,5.3
		C103.46,62.89,103.53,62.4,103.63,61.89z"/>
	<path style="fill:#C2A02E;" d="M103.23,66.05c0-0.08,0.01-0.17,0.01-0.26l-40.07-0.52c-0.81,0.87-1.63,1.73-2.43,2.63l42.54-0.62
		C103.26,66.87,103.23,66.48,103.23,66.05z"/>
	<path style="fill:#C2A02E;" d="M103.53,69.59L53.1,77.88c-0.71,1.08-1.4,2.18-2.07,3.32l52.82-9.98
		C103.72,70.68,103.63,70.14,103.53,69.59z"/>
	<path style="fill:#C2A02E;" d="M104.51,73.41L44.7,94.3c-0.47,1.25-0.91,2.52-1.34,3.79l61.66-23.3
		C104.83,74.33,104.68,73.87,104.51,73.41z"/>
	<path style="fill:#C2A02E;" d="M106.06,76.87l-66.29,37.14c-0.19,1.44-0.35,2.89-0.46,4.36l67.56-40.2
		C106.58,77.75,106.33,77.32,106.06,76.87z"/>
	<path style="fill:#C2A02E;" d="M59.74,119.66v4.3l49.54-42.75c-0.36-0.38-0.74-0.78-1.06-1.19L59.74,119.66z"/>
	<path style="fill:#C2A02E;" d="M110.9,82.77l-65.21,75.69c0.6,1.43,1.23,2.82,1.91,4.22l64.5-78.96
		C111.69,83.42,111.29,83.1,110.9,82.77z"/>
	<path style="fill:#C2A02E;" d="M113.97,84.98L67.14,163.6l2.02,4.62l46.17-82.47C114.87,85.51,114.43,85.25,113.97,84.98z"/>
	<path style="fill:#C2A02E;" d="M117.35,86.65L75.97,195.95c1.31,0.91,2.6,1.77,3.94,2.6l38.96-111.37
		C118.34,87.04,117.85,86.85,117.35,86.65z"/>
	<path style="fill:#C2A02E;" d="M99.2,202.61l4.31,2.22l19.01-116.88c-0.5-0.07-1-0.13-1.5-0.22L99.2,202.61z"/>
</g>
<path style="fill:#FFFFFF;" d="M143.91,66.05c-0.01,10.27-8.31,18.56-18.57,18.56c-10.26,0-18.57-8.3-18.57-18.56
	c0.01-10.26,8.32-18.56,18.59-18.56C135.61,47.48,143.91,55.78,143.91,66.05"/>
<g>
	<path style="fill:#C2A02E;" d="M117.29,71.37c1.06-1.96,0.16-5.66-0.03-7.07c-0.2-1.4-0.75-4.69,0-7.74
		c0.73-3.05,1.92-4.86,2.95-5.47c0,0-4.2,0.57-5.51,3.95c-1.32,3.37-0.5,6.91-0.33,8.58c0.17,1.71,0.82,5.69,0.46,7.34
		c-0.37,1.65-0.87,1.65-0.87,1.65s-1.94-1.12-1.61-4.68c0,0-1.6-0.16-2.01,1.61c-0.42,1.8,1.68,4.54,2.22,5
		C112.55,74.55,116.22,73.36,117.29,71.37"/>
	<path style="fill:#C2A02E;" d="M130.86,79.17c-0.48-0.21-2.21-0.66-2.83-2.07c-0.62-1.39-0.58-3.64,0.16-5.54
		c0.75-1.89,2.19-5.31,1.64-7.67c-0.61-2.71-2.96-4.65-2.96-4.65l-4.28,3.13c0,0-0.29-4.11,0.16-6.63c0.46-2.5,0.91-3.73,1.89-4.03
		c0,0,1.33,1.36,3.21,1.07c1.9-0.28,2.84-2.46,2.84-2.46s-1.41,0.65-2.84,0.31c-1.44-0.33-2.22-0.95-2.22-0.95s-2.19,0.37-3.96,3.04
		c-1.76,2.68-1.49,7.17-1.26,9.43c0.19,2.26,0.78,10.87,0.28,12.88c-0.5,2.02-0.91,2.48-0.91,2.48s-1.02-1.08-2.59-1.37
		c-1.57-0.29-2.97,0.86-2.97,0.86s0.83-0.03,2.02,0.99c1.19,1.03,1.61,1.73,2.97,0.98c1.34-0.74,2.54-1.6,3.48-3.62
		c0.96-2.02,0.21-6.95,0.05-8.51c-0.16-1.57-0.16-3.24-0.16-3.24s0.77-1.05,1.97-1.05c1.19,0,2.02,2.04,2.22,5.51
		c0.2,3.46-0.69,7.05-0.53,8.48c0.15,1.45,0.9,3.86,1.63,4.3c0.75,0.48,1.7,0.44,2.6-0.44C131.42,79.57,131.38,79.37,130.86,79.17"
		/>
	<path style="fill:#C2A02E;" d="M137.82,64.72c-1.89-1.65-3.94-3.66-4.08-5.45c-0.12-1.76,1.2-2.62,1.2-2.62s3.46,1.36,4.53,5.46
		c0,0,1.43-1.64-0.62-4.85c-1.32-2.04-4.25-3.45-4.25-3.45s-2.92,3.62-2.92,7.16c0,3.54,3.01,4.77,4.24,6.3
		c1.24,1.52,1.98,3.2,1.98,4.97c0,1.77-0.74,3.38-1.72,3.38c-1,0-3-1.97-3.76-6.55c0,0-1.05,2.48,0.41,6.34
		c1.49,3.86,3.38,2.42,4.65,1.32c1.26-1.11,2.73-3.18,3.05-5.36C140.89,69.2,139.69,66.34,137.82,64.72"/>
</g>
<g>
	<path style="fill:#C2A02E;" d="M170.9,177.72v-3.33L170.9,93l-45.52,0l-45.53,0v81.39v3.34c0,0-0.74,6.06,3.56,11.62
		c4.28,5.56,10.89,7.62,16.72,9.34c5.84,1.72,12.53,2.56,17.86,4.48c5.14,1.85,7.39,3.9,7.39,4.97c0-1.07,2.24-3.12,7.39-4.97
		c5.34-1.93,12-2.75,17.84-4.47c5.85-1.73,12.45-3.78,16.74-9.34C171.63,183.78,170.9,177.72,170.9,177.72"/>
	<g>
		<polygon style="fill:#AA182C;" points="82.32,169.94 124.1,197.11 124.1,188.56 82.32,161.4 		"/>
		<path style="fill:#AA182C;" d="M82.32,179.33c0.22,2.96,1.37,8.23,6.45,11.73c5.72,3.92,11.77,5.15,22.1,7.63
			c0,0,1.83,0.34,4.23,0.96l-32.78-21.31V179.33z"/>
		<polygon style="fill:#AA182C;" points="82.32,153 124.1,180.16 124.1,171.63 82.32,144.46 		"/>
		<polygon style="fill:#AA182C;" points="82.32,136.06 124.12,163.23 124.12,154.69 82.32,127.54 		"/>
		<polygon style="fill:#AA182C;" points="82.32,119.14 124.12,146.29 124.12,137.76 82.32,110.61 		"/>
		<polygon style="fill:#AA182C;" points="124.12,129.36 124.12,120.82 85.19,95.53 82.32,95.53 82.32,102.2 		"/>
		<polygon style="fill:#AA182C;" points="124.12,103.9 111.26,95.54 98.14,95.53 124.12,112.42 		"/>
	</g>
	<path style="fill:#FFFFFF;" d="M145.26,109.02c0-0.86,0.68-1.54,1.52-1.57v1.48c0,0.41,0.34,0.74,0.76,0.74
		c0.4,0,0.76-0.33,0.76-0.74v-1.48c0.84,0.02,1.53,0.71,1.53,1.57v5.97c0,0.86-0.7,1.54-1.53,1.56v-1.46c0-0.42-0.36-0.76-0.76-0.76
		c-0.42,0-0.76,0.34-0.76,0.76v1.46c-0.84-0.02-1.54-0.7-1.54-1.56L145.26,109.02 M147.53,97.46c0.4,0,0.76,0.33,0.76,0.75v1.48
		c0.84-0.02,1.53-0.7,1.53-1.55v-2.59h-4.57v2.59c0,0.85,0.68,1.53,1.52,1.55v-1.48C146.77,97.79,147.12,97.46,147.53,97.46
		 M145.22,142.77v5.96c0,0.87,0.7,1.56,1.56,1.59v-1.49c0-0.42,0.33-0.76,0.76-0.76c0.4,0,0.74,0.34,0.74,0.76v1.49
		c0.87-0.03,1.57-0.72,1.57-1.59v-5.96c0-0.85-0.7-1.55-1.57-1.58v1.48c0,0.42-0.34,0.75-0.74,0.75c-0.43,0-0.76-0.32-0.76-0.75
		v-1.48C145.91,141.22,145.22,141.92,145.22,142.77 M145.24,125.88v5.98c0,0.85,0.69,1.53,1.53,1.56v-1.47
		c0-0.43,0.34-0.75,0.76-0.75c0.4,0,0.76,0.32,0.76,0.75v1.47c0.84-0.02,1.53-0.71,1.53-1.56v-5.98c0-0.85-0.7-1.54-1.53-1.55v1.47
		c0,0.42-0.36,0.75-0.76,0.75c-0.42,0-0.76-0.33-0.76-0.75v-1.47C145.93,124.35,145.24,125.04,145.24,125.88 M168.45,177.13
		l0.01-81.59h-17.18v2.75c0,1.63-1.31,2.95-2.94,2.95h-0.04v4.67h0.04c1.62,0,2.94,1.32,2.94,2.94v6.31c0,1.64-1.31,2.96-2.95,2.96
		h-0.03v4.64h0.03c1.64,0,2.95,1.34,2.95,2.96v6.32c0,1.61-1.31,2.94-2.95,2.94h-0.03l-0.02,4.67h0.06c1.64,0,2.97,1.31,2.97,2.94
		v6.31c0,1.63-1.33,2.95-2.97,2.95h-0.06v5.92h4.79c0.09-0.14,0.19-0.24,0.28-0.37c0.82-1.54,1.28-3.22,1.24-6.06
		c0,0-1,0.16-1.91-0.52c0,0-1.35-1.04-1.35-2.32v-2.57c0,0,0.19,1.41,1.47,2.43c1.26,1.01,1.79,0.63,1.79,0.63s0.67-1.01,1.15-3.7
		c0.49-2.69,0.42-4.03,0.42-4.03s-2.5,0.15-3.25-0.64c-0.75-0.77-0.56-1.67-0.56-1.67s0.66-0.05,1.58-0.23
		c1.26-0.26,1.26-1.43,1.26-1.43s0.96,0.08,1.34-0.44c0.38-0.53,0.27-1.91,0.72-2.48l0.85,2.15h0.41c0,0-0.3-1.15,1.13-3.12
		c0,0-0.11,1.16,0.34,3.89c0.44,2.72,0.62,5.19,0.49,6.83c-0.15,1.65-0.89,6.95-0.57,11.19c0.44,5.9,3.03,11.54,3.03,11.54
		s1.76,0.36,1.89-1.73c0.15-2.09-0.7-4.78-1.23-7.44c-0.53-2.64-2.03-8.26-0.67-13.05c1.13-4,4.3-5.84,4.3-5.84
		s-1.84,2.55-2.36,6.06c-0.53,3.51,0.18,6.88,0.82,9.86c0,0,1.01,4.79,1.19,7.74c0.18,2.97-0.37,4.52-1.12,4.89
		c-0.75,0.37-1.64,0.12-1.64,0.12s-0.12,0.6,0.45,1.56c0,0-1.72,1.36-1.72,4.27c0,2.92,1.15,2.92,2.6,1.75l-1.97,10.31
		c0,0-0.27,1.84-1.09,2.69c-0.83,0.87-1.44,1.35-4.82,1.35c0,0-0.19-1.04,0.48-2.18c0.67-1.12,1.39-1.22,1.76-1.19
		c0.38,0.03,0.71,0.14,0.71,0.14s0.78-0.14,1.45-2.27c0.68-2.13,1.41-5.12,1.41-5.12s-1.48,1.09-2.75-0.6
		c-1.28-1.68-1.58-5.48,0.89-8.21c0,0-0.89-0.27-2,0.52c-1.12,0.78-2.42,2.65-1.93,4.36c0.25,0.76,1.17,0.57,1.17,0.57
		s-0.45,0.63-1.61,1.76c-1.16,1.11-2.69,2.31-3.08,3.91c-0.36,1.62-0.22,2.23-0.22,2.23s-1.78,0.13-2.04-1.99
		c-0.35-2.72,4.5-5.3,4.5-5.3s-2.46-0.4-2.46-2.31c0,0-0.25-1.95,1.96-3.88c2.2-1.95,5.22-1.87,5.22-1.87s-1.52-0.93-3.74-5.05
		c-2.19-4.11-1.83-6.13-1.83-6.13s-0.27,0.5-0.62,1.02h0c0,0.02-0.02,0.02-0.02,0.04c-0.18,0.25-0.37,0.52-0.54,0.74
		c-0.18,0.18-0.34,0.32-0.52,0.48c-0.81,0.81-1.77,1.44-2.84,1.88c1.93,1.17,3.24,3.27,3.24,5.69c0,3.67-2.99,6.65-6.66,6.65
		c-3.65,0-6.63-2.98-6.63-6.65c0-2.43,1.31-4.52,3.24-5.69c-1.08-0.45-2.05-1.1-2.87-1.91c-0.15-0.15-0.31-0.28-0.48-0.47
		c-0.19-0.2-0.38-0.47-0.55-0.74c-0.03,0-0.03,0-0.04-0.02h0.01c-0.35-0.52-0.61-1.02-0.61-1.02s0.37,2.01-1.83,6.11
		c-2.21,4.13-3.73,5.05-3.73,5.05s3.02-0.06,5.22,1.87c2.21,1.95,1.94,3.9,1.94,3.9c0,1.9-2.45,2.3-2.45,2.3s4.86,2.59,4.52,5.31
		c-0.26,2.12-2.07,1.98-2.07,1.98s0.16-0.61-0.22-2.22c-0.37-1.6-1.9-2.8-3.06-3.91c-1.16-1.12-1.6-1.75-1.6-1.75
		s0.94,0.18,1.15-0.57c0.51-1.71-0.79-3.6-1.91-4.38c-1.11-0.77-2.02-0.51-2.02-0.51c2.48,2.72,2.16,6.53,0.91,8.21
		c-1.27,1.68-2.78,0.61-2.78,0.61s0.75,2.99,1.43,5.11c0.65,2.14,1.45,2.28,1.45,2.28s0.34-0.1,0.71-0.14
		c0.38-0.04,1.08,0.07,1.75,1.19c0.67,1.12,0.5,2.17,0.5,2.17c-3.36,0-4-0.47-4.82-1.34c-0.82-0.86-1.08-2.69-1.08-2.69l-1.98-10.31
		c1.44,1.16,2.62,1.16,2.62-1.76c0-2.9-1.73-4.26-1.73-4.26c0.56-0.96,0.45-1.57,0.45-1.57s-0.91,0.25-1.65-0.11
		c-0.74-0.37-1.31-1.94-1.13-4.9c0.18-2.95,1.2-7.75,1.2-7.75c0.64-2.98,1.35-6.34,0.83-9.85c-0.52-3.52-2.36-6.05-2.36-6.05
		s3.17,1.82,4.3,5.83c1.33,4.79-0.15,10.41-0.68,13.05c-0.52,2.68-1.38,5.37-1.24,7.46c0.16,2.09,1.91,1.71,1.91,1.71
		s2.56-5.63,3.02-11.54c0.32-4.23-0.4-9.53-0.56-11.18c-0.15-1.64,0.03-4.11,0.49-6.84c0.45-2.73,0.34-3.89,0.34-3.89
		c1.42,1.97,1.13,3.13,1.13,3.13h0.41l0.86-2.15c0.45,0.57,0.35,1.95,0.71,2.47c0.4,0.52,1.36,0.45,1.36,0.45s0,1.15,1.26,1.43
		c0.91,0.18,1.57,0.21,1.57,0.21s0.18,0.9-0.56,1.68c-0.76,0.78-3.27,0.64-3.27,0.64s-0.07,1.33,0.42,4.03
		c0.49,2.7,1.16,3.69,1.16,3.69s0.53,0.37,1.79-0.64c1.27-1,1.47-2.42,1.47-2.42v2.57c0,1.27-1.35,2.32-1.35,2.32
		c-0.89,0.67-1.91,0.52-1.91,0.52c-0.05,2.84,0.41,4.51,1.25,6.05c0.06,0.14,0.17,0.25,0.25,0.39h4.79v-5.92h-0.05
		c-1.63,0-2.98-1.32-2.98-2.95v-6.31c0-1.63,1.35-2.94,2.98-2.94h0.05v-4.67h-0.04c-1.64,0-2.95-1.33-2.95-2.94v-6.32
		c0-1.62,1.32-2.96,2.95-2.96h0.04v-4.64h-0.04c-1.64,0-2.95-1.32-2.95-2.96v-6.31c0-1.62,1.33-2.94,2.95-2.94h0.04v-4.67h-0.04
		c-1.63,0-2.95-1.33-2.95-2.95v-2.75h-17.13v107.64c4.6-2.98,13.23-4.5,13.23-4.5c10.33-2.47,16.38-3.69,22.09-7.62
		C169.38,185.98,168.45,177.13,168.45,177.13"/>
</g>
</svg>
