<?xml version="1.0" encoding="UTF-8" standalone="no"?>
<!-- Created with Inkscape (http://www.inkscape.org/) -->

<svg
   xmlns:dc="http://purl.org/dc/elements/1.1/"
   xmlns:cc="http://creativecommons.org/ns#"
   xmlns:rdf="http://www.w3.org/1999/02/22-rdf-syntax-ns#"
   xmlns:svg="http://www.w3.org/2000/svg"
   xmlns="http://www.w3.org/2000/svg"
   xmlns:sodipodi="http://sodipodi.sourceforge.net/DTD/sodipodi-0.dtd"
   xmlns:inkscape="http://www.inkscape.org/namespaces/inkscape"
   width="63.061481mm"
   height="27.136866mm"
   viewBox="0 0 63.061481 27.136866"
   version="1.1"
   id="svg8"
   inkscape:version="0.92.5 (2060ec1f9f, 2020-04-08)"
   sodipodi:docname="itmo.svg">
  <defs
     id="defs2" />
  <sodipodi:namedview
     id="base"
     pagecolor="#ffffff"
     bordercolor="#666666"
     borderopacity="1.0"
     inkscape:pageopacity="0.0"
     inkscape:pageshadow="2"
     inkscape:zoom="0.98994949"
     inkscape:cx="-50.782587"
     inkscape:cy="39.764192"
     inkscape:document-units="mm"
     inkscape:current-layer="g825"
     showgrid="false"
     fit-margin-top="0"
     fit-margin-left="0"
     fit-margin-right="0"
     fit-margin-bottom="0"
     inkscape:window-width="1920"
     inkscape:window-height="1056"
     inkscape:window-x="0"
     inkscape:window-y="1080"
     inkscape:window-maximized="1" />
  <metadata
     id="metadata5">
    <rdf:RDF>
      <cc:Work
         rdf:about="">
        <dc:format>image/svg+xml</dc:format>
        <dc:type
           rdf:resource="http://purl.org/dc/dcmitype/StillImage" />
        <dc:title></dc:title>
      </cc:Work>
    </rdf:RDF>
  </metadata>
  <g
     inkscape:label="Layer 1"
     inkscape:groupmode="layer"
     id="layer1"
     transform="translate(-77.326331,-138.28886)">
    <g
       transform="matrix(0.35277777,0,0,-0.35277777,63.509071,197.21651)"
       inkscape:label="ink_ext_XXXXXX"
       id="g823">
      <g
         transform="scale(0.1)"
         id="g825">
        <path
           inkscape:connector-curvature="0"
           id="path829"
           style="fill:#304ba6;fill-opacity:1;fill-rule:evenodd;stroke:none"
           d="m 955.457,1404.21 c 0,-12.95 -10.5,-23.45 -23.457,-23.45 -12.957,0 -23.457,10.5 -23.457,23.45 0,12.96 10.5,23.47 23.457,23.47 12.957,0 23.457,-10.51 23.457,-23.47 z M 2147.46,932.469 c -5.82,-7.699 -14.3,-11.606 -25.19,-11.606 -10.77,0 -19.19,3.907 -25.01,11.606 -5.87,7.765 -8.84,17.898 -8.84,30.109 0,12.211 2.97,22.344 8.84,30.113 5.82,7.699 14.24,11.609 25.01,11.609 10.89,0 19.37,-3.91 25.19,-11.609 5.86,-7.769 8.84,-17.894 8.84,-30.113 0,-12.219 -2.98,-22.348 -8.84,-30.109 z m 16.9,74.181 c -9.9,11.51 -24.05,17.35 -42.09,17.35 -18.03,0 -32.16,-5.84 -42,-17.36 -9.82,-11.468 -14.8,-26.3 -14.8,-44.062 0,-17.875 4.98,-32.73 14.8,-44.156 9.84,-11.453 23.97,-17.266 42,-17.266 18.03,0 32.19,5.813 42.09,17.266 9.88,11.426 14.88,26.281 14.88,44.156 0,17.766 -5,32.59 -14.88,44.072 z m -135.13,15.64 c -4.23,0 -7.82,-2.3 -10.68,-6.84 l -33.62,-54.29 -34.29,54.12 c -2.86,4.65 -6.64,7.01 -11.2,7.01 -3.04,0 -5.53,-0.96 -7.42,-2.86 -1.9,-1.89 -2.86,-4.8 -2.86,-8.62 v -96.806 c 0,-7.383 3.46,-11.133 10.28,-11.133 6.82,0 10.28,3.75 10.28,11.129 v 66.371 l 24.02,-37.656 c 2.64,-4.195 6.05,-6.32 10.17,-6.32 4,0 7.37,2.187 10,6.488 l 23.68,38.273 v -67.152 c 0,-3.242 0.98,-5.945 2.92,-8 1.95,-2.082 4.65,-3.133 8.03,-3.133 3.51,0 6.24,1.055 8.13,3.137 1.88,2.062 2.83,4.754 2.83,7.992 l 0.01,96.98 c 0,3.35 -0.89,6.09 -2.65,8.16 -1.78,2.08 -4.35,3.15 -7.63,3.15 z m -128.45,0 h -81.07 c -3.12,0 -5.67,-0.87 -7.57,-2.58 -1.91,-1.72 -2.88,-4.15 -2.88,-7.19 0,-2.92 0.97,-5.34 2.87,-7.17 1.89,-1.83 4.44,-2.76 7.58,-2.76 h 29.58 v -88.586 c 0,-3.242 0.95,-5.938 2.83,-7.996 1.9,-2.082 4.63,-3.137 8.12,-3.137 3.5,0 6.24,1.055 8.13,3.137 1.88,2.062 2.84,4.754 2.84,7.992 v 88.59 h 29.57 c 3.26,0 5.86,0.93 7.76,2.76 1.9,1.84 2.86,4.25 2.86,7.17 0,3.04 -0.97,5.47 -2.88,7.19 -1.89,1.71 -4.5,2.58 -7.74,2.58 z M 1790.13,914.004 v 96.976 c 0,7.5 -3.51,11.31 -10.44,11.31 -3.98,0 -7.51,-2.06 -10.49,-6.11 l -53.98,-74.703 v 69.503 c 0,3.24 -0.95,5.96 -2.83,8.08 -1.89,2.14 -4.63,3.23 -8.13,3.23 -3.62,0 -6.39,-1.09 -8.22,-3.24 -1.82,-2.12 -2.74,-4.84 -2.74,-8.07 v -96.976 c 0,-3.477 0.93,-6.223 2.75,-8.168 1.84,-1.965 4.43,-2.965 7.7,-2.965 3.52,0 6.93,2.109 10.14,6.274 l 54.32,74.218 v -69.359 c 0,-3.133 0.95,-5.789 2.83,-7.906 1.89,-2.141 4.69,-3.227 8.3,-3.227 3.51,0 6.21,1.055 8.06,3.145 1.81,2.058 2.73,4.746 2.73,7.988 z m -163.84,98.516 c 0,3.04 -0.97,5.47 -2.89,7.19 -1.89,1.71 -4.49,2.58 -7.73,2.58 h -81.08 c -3.12,0 -5.67,-0.87 -7.56,-2.58 -1.91,-1.72 -2.89,-4.15 -2.89,-7.19 0,-2.92 0.97,-5.34 2.87,-7.17 1.89,-1.83 4.45,-2.76 7.58,-2.76 h 29.58 v -88.586 c 0,-3.242 0.96,-5.938 2.83,-7.996 1.9,-2.082 4.63,-3.137 8.13,-3.137 3.5,0 6.23,1.055 8.13,3.137 1.88,2.062 2.83,4.754 2.83,7.992 v 88.59 h 29.58 c 3.25,0 5.86,0.93 7.75,2.76 1.9,1.84 2.87,4.25 2.87,7.17 z m -120.6,-89.954 h -48.73 v 31.786 h 37.44 c 3.25,0 5.86,0.933 7.75,2.765 1.9,1.836 2.87,4.25 2.87,7.176 0,3.047 -0.97,5.461 -2.88,7.184 -1.9,1.711 -4.5,2.574 -7.74,2.574 h -37.44 v 28.539 h 47.02 c 3.14,0 5.68,0.89 7.57,2.66 1.91,1.79 2.87,4.17 2.87,7.1 0,3.04 -0.96,5.48 -2.87,7.26 -1.89,1.78 -4.44,2.68 -7.57,2.68 h -57.81 c -3.49,0 -6.26,-1.09 -8.21,-3.22 -1.94,-2.12 -2.92,-4.84 -2.92,-8.09 v -96.804 c 0,-3.25 1.01,-5.977 3.01,-8.09 2.01,-2.129 4.79,-3.215 8.29,-3.215 h 59.35 c 3.13,0 5.68,0.899 7.58,2.672 1.9,1.781 2.87,4.168 2.87,7.094 0,3.039 -0.97,5.476 -2.87,7.265 -1.9,1.77 -4.45,2.664 -7.58,2.664 z m -89.78,89.954 c 0,3.04 -0.97,5.47 -2.88,7.19 -1.9,1.71 -4.5,2.58 -7.74,2.58 h -81.07 c -3.12,0 -5.67,-0.87 -7.57,-2.58 -1.91,-1.72 -2.88,-4.15 -2.88,-7.19 0,-2.92 0.96,-5.34 2.86,-7.17 1.9,-1.83 4.45,-2.76 7.59,-2.76 h 29.58 v -88.586 c 0,-3.242 0.95,-5.938 2.83,-7.996 1.89,-2.082 4.63,-3.137 8.12,-3.137 3.5,0 6.23,1.055 8.13,3.137 1.89,2.062 2.84,4.754 2.84,7.992 v 88.59 h 29.57 c 3.26,0 5.87,0.93 7.76,2.76 1.9,1.84 2.86,4.25 2.86,7.17 z m -131.71,9.77 c -3.98,0 -7.51,-2.06 -10.48,-6.11 l -53.99,-74.703 v 69.503 c 0,3.24 -0.95,5.96 -2.82,8.08 -1.91,2.14 -4.64,3.23 -8.14,3.23 -3.61,0 -6.38,-1.09 -8.23,-3.24 -1.81,-2.11 -2.73,-4.83 -2.73,-8.07 v -96.976 c 0,-3.477 0.92,-6.227 2.76,-8.168 1.83,-1.965 4.43,-2.965 7.69,-2.965 3.53,0 6.92,2.109 10.14,6.274 l 54.33,74.218 v -69.359 c 0,-3.133 0.95,-5.789 2.82,-7.906 1.9,-2.141 4.69,-3.227 8.31,-3.227 3.5,0 6.21,1.055 8.05,3.145 1.82,2.058 2.74,4.746 2.74,7.984 v 96.98 c 0,7.5 -3.52,11.31 -10.45,11.31 z m -125.56,-94.165 c -8.17,-4.824 -16.22,-7.262 -23.93,-7.262 -9.66,0 -17.74,3.739 -24.01,11.125 -6.31,7.422 -9.5,17.766 -9.5,30.762 0,12.547 2.98,22.734 8.84,30.27 9.51,12.24 25.19,14.64 46.32,6.535 7.11,-2.653 11.79,-1.559 13.87,3.095 2.45,5.24 0.99,9.73 -4.33,13.35 -7.61,5.31 -18.39,8 -32.04,8 -17.35,0 -31.11,-5.64 -40.9,-16.75 -9.75,-11.078 -14.71,-26.105 -14.71,-44.672 0,-18.785 4.67,-33.863 13.85,-44.832 9.22,-11.008 23.04,-16.59 41.08,-16.59 14.22,0 26.1,3.449 35.31,10.239 2.97,2.261 4.81,4.871 5.47,7.757 0.67,2.938 0.2,5.489 -1.39,7.563 -3.03,4.387 -7.76,4.914 -13.93,1.41 z m -156.98,74.715 c 4.75,0.62 9.53,0.95 14.18,0.95 15.76,0 23.41,-6.435 23.41,-19.661 0,-14.145 -8.05,-21.024 -24.61,-21.024 -5.42,0.004 -9.78,0.204 -12.98,0.598 z m 60.54,-18.195 c 0,13.164 -4.15,22.995 -12.33,29.205 -8.12,6.17 -19.4,9.29 -33.52,9.29 -10.04,0 -18.944,-0.75 -26.471,-2.24 -6.734,-1.32 -10.145,-5.58 -10.145,-12.65 l 0.004,-94.246 c 0,-3.242 0.95,-5.938 2.828,-7.996 1.903,-2.082 4.633,-3.137 8.125,-3.137 3.383,0 6.086,1.051 8.039,3.133 1.94,2.055 2.93,4.75 2.93,7.996 v 30.66 c 3.41,-0.492 8.17,-0.746 14.18,-0.746 13.67,0.004 24.92,3.453 33.45,10.25 8.57,6.836 12.91,17.09 12.91,30.481 z M 955.176,905.543 c 1.902,1.781 2.871,4.168 2.871,7.094 0,3.039 -0.969,5.476 -2.875,7.265 -1.891,1.77 -4.438,2.664 -7.57,2.664 h -48.735 v 31.786 h 37.442 c 3.257,0 5.863,0.933 7.757,2.765 1.899,1.836 2.86,4.25 2.86,7.176 0,3.047 -0.965,5.461 -2.879,7.184 -1.891,1.711 -4.492,2.574 -7.738,2.574 h -37.442 v 28.539 h 47.024 c 3.129,0 5.683,0.89 7.57,2.66 1.906,1.79 2.875,4.17 2.875,7.1 0,3.04 -0.969,5.48 -2.875,7.26 -1.887,1.78 -4.441,2.68 -7.574,2.68 h -57.813 c -3.492,0 -6.254,-1.09 -8.211,-3.22 -1.933,-2.12 -2.914,-4.84 -2.914,-8.09 v -96.804 c 0,-3.25 1.008,-5.977 3.012,-8.09 2.008,-2.129 4.797,-3.215 8.289,-3.215 h 59.352 c 3.132,0 5.679,0.899 7.574,2.672 z m -132.738,18.961 c -4.133,-2.754 -10.422,-4.156 -18.68,-4.156 -7.406,0 -13.844,0.32 -19.145,0.945 v 34.258 h 18.977 c 16.793,0 24.949,-5.699 24.949,-17.43 0.004,-6.332 -2.047,-10.918 -6.101,-13.617 z m -21.079,47.836 h -16.746 v 31.52 c 5.2,0.52 10.258,0.78 15.035,0.78 15.645,0 23.247,-4.976 23.247,-15.21 0.003,-11.496 -7.04,-17.09 -21.536,-17.09 z m 29.547,-5.531 c 4.18,2.218 7.586,5.441 10.133,9.601 2.852,4.656 4.297,9.727 4.297,15.07 0,21.01 -14.742,31.66 -43.801,31.66 -10.25,0 -19.551,-0.69 -27.66,-2.07 -6.852,-1.19 -10.324,-5.28 -10.324,-12.14 v -93.387 c 0,-6.758 3.426,-10.676 10.168,-11.637 8.086,-1.25 17.902,-1.883 29.179,-1.883 31.907,0 48.082,12.434 48.082,36.954 0,6.855 -1.953,12.836 -5.796,17.785 -3.512,4.535 -8.313,7.902 -14.278,10.047 z m -184.84,-63.938 c 3.52,0 6.926,2.109 10.141,6.274 l 54.324,74.218 v -69.359 c 0,-3.133 0.946,-5.789 2.824,-7.906 1.891,-2.141 4.692,-3.227 8.305,-3.227 3.504,0 6.211,1.055 8.051,3.145 1.82,2.058 2.738,4.746 2.738,7.984 v 96.98 c 0,7.5 -3.515,11.31 -10.445,11.31 -3.981,0 -7.508,-2.06 -10.488,-6.11 l -53.981,-74.703 v 69.503 c 0,3.24 -0.945,5.96 -2.824,8.08 -1.898,2.14 -4.633,3.23 -8.137,3.23 -3.617,0 -6.383,-1.09 -8.226,-3.24 -1.809,-2.11 -2.735,-4.83 -2.735,-8.07 v -96.976 c 0,-3.477 0.93,-6.227 2.754,-8.168 1.844,-1.965 4.434,-2.965 7.699,-2.965 z m -127.421,0 c 3.375,0 6.082,1.051 8.031,3.133 1.937,2.055 2.929,4.75 2.929,7.996 v 40.012 h 52.993 v -40.008 c 0,-3.242 0.953,-5.938 2.832,-7.996 1.894,-2.082 4.633,-3.137 8.125,-3.137 3.386,0 6.086,1.051 8.039,3.133 1.941,2.055 2.922,4.75 2.922,7.996 v 96.98 c 0,3.24 -0.981,5.96 -2.914,8.09 -1.957,2.13 -4.664,3.22 -8.047,3.22 -3.496,0 -6.231,-1.09 -8.133,-3.23 -1.871,-2.11 -2.824,-4.84 -2.824,-8.08 v -37.265 h -52.993 v 37.265 c 0,3.25 -0.984,5.97 -2.925,8.09 -1.953,2.13 -4.653,3.22 -8.035,3.22 -3.497,0 -6.235,-1.09 -8.141,-3.23 -1.875,-2.12 -2.824,-4.84 -2.824,-8.08 v -96.976 c 0,-3.242 0.949,-5.938 2.84,-7.996 1.89,-2.082 4.625,-3.137 8.125,-3.137 z M 486.449,1006.1 c 1.828,4.4 2.176,8 1.031,10.69 -0.882,2.05 -2.632,3.6 -5.199,4.6 -6.269,2.29 -11.246,-0.7 -14.57,-8.78 l -23.398,-56.755 -32.282,57.965 c -1.906,3.59 -4.203,6.02 -6.828,7.22 -2.668,1.21 -5.613,1.03 -8.75,-0.6 -2.918,-1.63 -4.512,-4.14 -4.746,-7.46 -0.23,-3.23 0.625,-6.46 2.523,-9.59 l 39.665,-68.921 c -1.75,-4.535 -3.625,-7.953 -5.567,-10.168 -1.933,-2.199 -4.168,-3.27 -6.832,-3.27 -1.203,0 -2.332,0.11 -3.363,0.328 -1.043,0.215 -2.266,0.61 -3.645,1.161 -1.472,0.593 -2.492,0.941 -3.035,1.046 -5.969,1.946 -10.039,0.262 -11.996,-4.863 -2.184,-5.832 -0.059,-10.551 6.305,-14.031 4.187,-2.328 9.832,-3.516 16.754,-3.516 7.711,0 14.132,2.938 19.093,8.711 4.871,5.684 10.063,14.922 15.418,27.465 z m 1267.161,600.09 c 0,-7.57 -6.14,-13.72 -13.71,-13.72 -7.58,0 -13.71,6.15 -13.71,13.72 0,7.58 6.13,13.71 13.71,13.71 7.57,0.01 13.71,-6.13 13.71,-13.71 z m -100.98,50.49 c 0,-7.57 -6.14,-13.71 -13.71,-13.71 -7.59,0 -13.72,6.14 -13.72,13.71 0,7.57 6.13,13.71 13.72,13.71 7.57,0 13.71,-6.14 13.71,-13.71 z m -302.97,-50.49 c 0,-7.57 -6.14,-13.72 -13.71,-13.72 -7.58,0 -13.72,6.15 -13.72,13.72 0,7.58 6.14,13.71 13.72,13.71 7.57,0.01 13.71,-6.13 13.71,-13.71 z m 312.7,-151.48 c 0,-12.96 -10.49,-23.46 -23.45,-23.46 -12.95,0 -23.46,10.5 -23.46,23.46 0.01,12.95 10.51,23.45 23.46,23.45 12.96,0 23.45,-10.5 23.45,-23.45 z m -9.73,-100.98 c 0,-7.58 -6.14,-13.72 -13.72,-13.72 -7.58,0 -13.71,6.14 -13.71,13.71 0,7.57 6.13,13.71 13.71,13.71 7.58,0 13.72,-6.14 13.72,-13.7 z m -79.52,151.47 c 0,-19.43 -15.76,-35.18 -35.19,-35.18 -19.43,0 -35.18,15.75 -35.18,35.18 0,19.43 15.75,35.19 35.18,35.19 19.44,0 35.19,-15.76 35.19,-35.19 z m 100.99,50.49 c 0,-19.42 -15.76,-35.18 -35.19,-35.18 -19.43,0 -35.19,15.76 -35.19,35.18 0,19.43 15.75,35.19 35.19,35.19 19.43,0 35.19,-15.76 35.19,-35.19 z m -122.46,-252.46 c 0,-7.58 -6.14,-13.71 -13.72,-13.71 -7.56,0 -13.71,6.13 -13.71,13.71 0,7.57 6.15,13.72 13.71,13.72 7.59,0 13.72,-6.15 13.72,-13.72 z m 201.97,201.97 c 0,-7.57 -6.14,-13.71 -13.71,-13.71 -7.57,0 -13.71,6.14 -13.71,13.71 0,7.57 6.14,13.71 13.71,13.71 7.57,0 13.71,-6.14 13.71,-13.71 z m -605.92,100.99 c 0,-7.57 -6.14,-13.72 -13.72,-13.72 -7.57,0 -13.7,6.15 -13.7,13.72 0,7.58 6.13,13.71 13.7,13.71 7.58,0.01 13.71,-6.13 13.72,-13.71 z m -201.975,0 c 0,-7.57 -6.133,-13.72 -13.715,-13.72 -7.574,0 -13.711,6.15 -13.711,13.72 0,7.58 6.137,13.71 13.711,13.71 7.582,0.01 13.715,-6.13 13.715,-13.71 z m 302.245,-353.46 c 0,-7.57 -6.14,-13.71 -13.71,-13.71 -7.57,0 -13.71,6.14 -13.71,13.71 0,7.57 6.14,13.72 13.71,13.72 7.57,0 13.71,-6.15 13.71,-13.72 z m -201.26,403.95 c 0,-7.57 -6.14,-13.71 -13.71,-13.71 -7.57,0 -13.71,6.14 -13.71,13.71 0,7.57 6.13,13.71 13.71,13.71 7.58,0 13.71,-6.14 13.71,-13.71 z m 0,-302.25 c 0,-7.57 -6.14,-13.71 -13.71,-13.71 -7.57,0 -13.71,6.14 -13.71,13.71 0,7.58 6.13,13.72 13.71,13.72 7.58,0 13.71,-6.14 13.71,-13.72 z m -201.973,100.28 c 0,-7.57 -6.149,-13.72 -13.715,-13.72 -7.571,0 -13.707,6.15 -13.707,13.72 0,7.58 6.136,13.71 13.707,13.71 7.566,0.01 13.715,-6.13 13.715,-13.71 z m 0,-100.98 c 0,-7.58 -6.149,-13.72 -13.715,-13.72 -7.571,0 -13.707,6.14 -13.707,13.71 0,7.57 6.136,13.71 13.707,13.71 7.566,0 13.715,-6.14 13.715,-13.7 z m 223.443,100.98 c 0,-19.44 -15.75,-35.19 -35.18,-35.19 -19.43,0 -35.185,15.75 -35.185,35.19 0,19.43 15.755,35.19 35.185,35.19 19.43,0 35.18,-15.76 35.18,-35.19 z m 89.26,-151.48 c 0,-12.96 -10.49,-23.46 -23.45,-23.46 -12.96,0 -23.46,10.5 -23.46,23.46 0,12.95 10.5,23.45 23.46,23.45 12.96,0.01 23.45,-10.5 23.45,-23.45 z m 100.99,252.46 c 0,-12.95 -10.5,-23.45 -23.45,-23.45 -12.96,0 -23.47,10.5 -23.47,23.45 0,12.96 10.51,23.46 23.47,23.46 12.95,0.01 23.45,-10.51 23.45,-23.46 z m 302.96,-151.48 c 0,-12.95 -10.51,-23.45 -23.46,-23.45 -12.95,0 -23.46,10.5 -23.46,23.45 0,12.96 10.51,23.46 23.46,23.46 12.95,0 23.46,-10.5 23.46,-23.46 z m 0,201.98 c 0,-12.96 -10.51,-23.46 -23.46,-23.46 -12.96,0 -23.46,10.5 -23.46,23.46 0,12.95 10.5,23.45 23.46,23.45 12.95,0 23.46,-10.5 23.46,-23.45 z m -89.26,-50.5 c 0,-19.42 -15.75,-35.18 -35.19,-35.18 -19.41,0 -35.18,15.76 -35.18,35.18 0,19.44 15.77,35.19 35.18,35.19 19.44,0 35.19,-15.75 35.19,-35.19 z m -213.7,-201.96 c 0,-12.96 -10.5,-23.47 -23.45,-23.47 -12.96,0 -23.47,10.51 -23.47,23.46 0,12.96 10.51,23.46 23.47,23.46 12.95,0 23.45,-10.5 23.45,-23.45 z m 112.71,151.47 c 0,-19.43 -15.76,-35.18 -35.2,-35.18 -19.42,0 -35.17,15.75 -35.17,35.18 0,19.44 15.75,35.19 35.17,35.19 19.44,0 35.2,-15.75 35.2,-35.19 z m 100.99,-50.49 c 0,-19.44 -15.76,-35.18 -35.18,-35.18 -19.43,0 -35.19,15.74 -35.19,35.18 0,19.43 15.76,35.18 35.19,35.18 19.42,0 35.18,-15.75 35.18,-35.18 z m -11.72,-100.98 c 0,-12.96 -10.51,-23.47 -23.46,-23.47 -12.96,0 -23.46,10.51 -23.46,23.46 0,12.96 10.5,23.46 23.46,23.46 12.95,0 23.46,-10.5 23.46,-23.45 z m -100.99,-50.5 c 0,-12.96 -10.51,-23.46 -23.46,-23.46 -12.95,0 -23.47,10.5 -23.47,23.46 0,12.95 10.52,23.45 23.47,23.45 12.95,0.01 23.46,-10.5 23.46,-23.45 z m 11.72,100.98 c 0,-19.43 -15.76,-35.19 -35.2,-35.19 -19.42,0 -35.17,15.76 -35.17,35.19 0,19.43 15.75,35.19 35.17,35.19 19.44,0 35.2,-15.76 35.2,-35.19 z m -201.97,0 c 0,-19.43 -15.75,-35.19 -35.18,-35.19 -19.43,0 -35.19,15.76 -35.19,35.19 0,19.43 15.76,35.19 35.19,35.19 19.43,0 35.18,-15.76 35.18,-35.19 z m 100.99,50.5 c 0,-19.44 -15.76,-35.19 -35.18,-35.19 -19.43,0 -35.19,15.75 -35.19,35.19 0,19.43 15.76,35.19 35.19,35.19 19.43,0 35.17,-15.76 35.18,-35.19 z m -100.99,50.49 c 0,-19.43 -15.75,-35.18 -35.18,-35.18 -19.43,0 -35.19,15.75 -35.19,35.18 0,19.43 15.76,35.19 35.19,35.19 19.43,0 35.18,-15.76 35.18,-35.19 z m -100.99,50.49 c 0,-19.42 -15.76,-35.19 -35.18,-35.19 -19.43,0 -35.185,15.77 -35.185,35.19 0,19.44 15.755,35.19 35.185,35.19 19.42,0 35.18,-15.75 35.18,-35.19" />
        <path
           inkscape:connector-curvature="0"
           id="path831"
           style="fill:#ed1443;fill-opacity:1;fill-rule:evenodd;stroke:none"
           d="m 967.188,1505.2 c 0,-19.43 -15.75,-35.18 -35.188,-35.18 -19.426,0 -35.184,15.75 -35.184,35.18 0,19.43 15.758,35.19 35.184,35.19 19.438,0 35.188,-15.76 35.188,-35.19" />
      </g>
    </g>
  </g>
</svg>
