<?xml version="1.0" encoding="UTF-8" standalone="no"?>
<svg
   xmlns:dc="http://purl.org/dc/elements/1.1/"
   xmlns:cc="http://creativecommons.org/ns#"
   xmlns:rdf="http://www.w3.org/1999/02/22-rdf-syntax-ns#"
   xmlns:svg="http://www.w3.org/2000/svg"
   xmlns="http://www.w3.org/2000/svg"
   id="svg8"
   version="1.1"
   viewBox="0 0 97.513428 10.583333"
   height="10.583333mm"
   width="97.513428mm">
  <defs
     id="defs2" />
  <metadata
     id="metadata5">
    <rdf:RDF>
      <cc:Work
         rdf:about="">
        <dc:format>image/svg+xml</dc:format>
        <dc:type
           rdf:resource="http://purl.org/dc/dcmitype/StillImage" />
        <dc:title></dc:title>
      </cc:Work>
    </rdf:RDF>
  </metadata>
  <g
     transform="translate(-46.492179,-138.25)"
     id="layer1">
    <g
       id="text817"
       style="font-style:normal;font-weight:normal;font-size:10.58333302px;line-height:1.32291663px;font-family:sans-serif;font-variant-ligatures:normal;font-variant-caps:normal;font-variant-numeric:normal;font-feature-settings:normal;text-align:center;letter-spacing:0px;word-spacing:0px;writing-mode:lr-tb;text-anchor:middle;fill:#000000;fill-opacity:1;stroke:none;stroke-width:0.26458332"
       aria-label="zemmy ang">
      <path
         id="path819"
         style="font-style:normal;font-variant:normal;font-weight:normal;font-stretch:normal;font-family:'Pixel Inversions';-inkscape-font-specification:'Pixel Inversions';stroke-width:0.26458332"
         d="m 55.561392,147.32179 v -1.51153 h -4.534606 v -1.51154 h 1.511535 v -1.51153 h 1.511536 v -1.51154 h 1.511535 v -1.51154 h -7.557678 v 1.51154 h 4.534607 v 1.51154 h -1.511535 v 1.51153 H 49.51525 v 1.51154 h -1.511536 v 1.51153 z m -9.069213,1.51154 v -4.53461 h 1.511535 v -1.51153 H 46.492179 V 138.25 h 10.583333 v 4.53719 h -1.51412 v 1.51153 h 1.51412 v 4.53461 z" />
      <path
         id="path821"
         style="font-style:normal;font-variant:normal;font-weight:normal;font-stretch:normal;font-family:'Pixel Inversions';-inkscape-font-specification:'Pixel Inversions';stroke-width:0.26458332"
         d="m 66.144725,147.32179 v -1.51153 h -4.534606 v -1.51154 h 3.023071 v -1.51153 h -3.023071 v -1.51154 h 4.534606 v -1.51154 h -6.046142 v 7.55768 z m -7.557678,1.51154 V 138.25 h 9.069214 v 4.53719 h -1.511536 v 1.51153 h 1.511536 v 4.53461 z" />
      <path
         id="path823"
         style="font-style:normal;font-variant:normal;font-weight:normal;font-stretch:normal;font-family:'Pixel Inversions';-inkscape-font-specification:'Pixel Inversions';stroke-width:0.26458332"
         d="m 78.239594,147.32179 v -7.55768 h -7.557678 v 7.55768 h 1.511536 v -6.04614 h 1.511535 v 6.04614 h 1.511536 v -6.04614 h 1.511535 v 6.04614 z m -9.069214,1.51154 V 138.25 h 10.583334 v 10.58333 z" />
      <path
         id="path825"
         style="font-style:normal;font-variant:normal;font-weight:normal;font-stretch:normal;font-family:'Pixel Inversions';-inkscape-font-specification:'Pixel Inversions';stroke-width:0.26458332"
         d="m 90.334464,147.32179 v -7.55768 h -7.557678 v 7.55768 h 1.511535 v -6.04614 h 1.511536 v 6.04614 h 1.511536 v -6.04614 h 1.511535 v 6.04614 z m -9.069214,1.51154 V 138.25 h 10.583333 v 10.58333 z" />
      <path
         id="path827"
         style="font-style:normal;font-variant:normal;font-weight:normal;font-stretch:normal;font-family:'Pixel Inversions';-inkscape-font-specification:'Pixel Inversions';stroke-width:0.26458332"
         d="m 99.40626,147.32179 v -4.5346 h 1.51154 v -1.51154 h 1.51153 v -1.51154 h -1.51153 v 1.51154 h -1.51154 v 1.51154 h -1.511535 v -1.51154 h -1.511536 v -1.51154 h -1.511536 v 1.51154 h 1.511536 v 1.51154 h 1.511536 v 4.5346 z m -3.023071,1.51154 v -4.53461 h -1.511536 v -1.51153 H 93.360118 V 138.25 h 4.534607 v 1.51411 H 99.40626 V 138.25 h 4.53719 v 4.53719 h -1.51412 v 1.51153 h -1.51153 v 4.53461 z" />
      <path
         id="path829"
         style="font-style:normal;font-variant:normal;font-weight:normal;font-stretch:normal;font-family:'Pixel Inversions';-inkscape-font-specification:'Pixel Inversions';stroke-width:0.26458332"
         d="m 113.76972,142.78719 v -1.51154 h 4.53461 v 1.51154 z m 6.04614,4.5346 v -6.04614 h -1.51153 v -1.51154 h -4.53461 v 1.51154 h -1.51153 v 6.04614 h 1.51153 v -3.02307 h 4.53461 v 3.02307 z m -9.06921,1.51154 v -9.06922 h 1.51154 V 138.25 h 7.55767 v 1.51411 h 1.51412 v 9.06922 h -4.53719 v -3.02307 h -1.51153 v 3.02307 z" />
      <path
         id="path831"
         style="font-style:normal;font-variant:normal;font-weight:normal;font-stretch:normal;font-family:'Pixel Inversions';-inkscape-font-specification:'Pixel Inversions';stroke-width:0.26458332"
         d="m 131.91073,147.32179 v -7.55768 h -1.51153 v 4.53461 h -1.51154 v -1.51153 h -1.51153 v -1.51154 h -1.51154 v -1.51154 h -1.51153 v 7.55768 h 1.51153 v -4.5346 h 1.51154 v 1.51153 h 1.51153 v 1.51154 h 1.51154 v 1.51153 z m -9.06921,1.51154 V 138.25 h 4.53461 v 1.51411 h 1.51153 V 138.25 h 4.53719 v 10.58333 h -4.53719 v -1.51154 h -1.51153 v 1.51154 z" />
      <path
         id="path833"
         style="font-style:normal;font-variant:normal;font-weight:normal;font-stretch:normal;font-family:'Pixel Inversions';-inkscape-font-specification:'Pixel Inversions';stroke-width:0.26458332"
         d="m 140.98254,147.32179 v -1.51153 h 1.51153 v -3.02307 H 139.471 v 1.51153 h 1.51154 v 1.51154 h -3.02308 v -4.53461 h 4.53461 v -1.51154 h -4.53461 v 1.51154 h -1.51153 v 6.04614 z m -6.04615,1.51154 v -9.06922 h 1.51154 V 138.25 h 7.55768 v 9.07179 h -1.51154 v 1.51154 z" />
    </g>
  </g>
</svg>
